<?xml version="1.0" encoding="UTF-8"?>
<svg width="700pt" height="700pt" version="1.1" viewBox="0 0 700 700" xmlns="http://www.w3.org/2000/svg" xmlns:xlink="http://www.w3.org/1999/xlink">
 <defs>
  <symbol id="v" overflow="visible">
   <path d="m18.766-1.125c-0.96875 0.5-1.9805 0.875-3.0312 1.125-1.043 0.25781-2.1367 0.39062-3.2812 0.39062-3.3984 0-6.0898-0.94531-8.0781-2.8438-1.9922-1.9062-2.9844-4.4844-2.9844-7.7344 0-3.2578 0.99219-5.8359 2.9844-7.7344 1.9883-1.9062 4.6797-2.8594 8.0781-2.8594 1.1445 0 2.2383 0.13281 3.2812 0.39062 1.0508 0.25 2.0625 0.625 3.0312 1.125v4.2188c-0.98047-0.65625-1.9453-1.1406-2.8906-1.4531-0.94922-0.3125-1.9492-0.46875-3-0.46875-1.875 0-3.3516 0.60547-4.4219 1.8125-1.0742 1.1992-1.6094 2.8555-1.6094 4.9688 0 2.1055 0.53516 3.7617 1.6094 4.9688 1.0703 1.1992 2.5469 1.7969 4.4219 1.7969 1.0508 0 2.0508-0.14844 3-0.45312 0.94531-0.3125 1.9102-0.80078 2.8906-1.4688z"/>
  </symbol>
  <symbol id="a" overflow="visible">
   <path d="m13.734-11.141c-0.4375-0.19531-0.87109-0.34375-1.2969-0.4375-0.41797-0.10156-0.83984-0.15625-1.2656-0.15625-1.2617 0-2.2305 0.40625-2.9062 1.2188-0.67969 0.80469-1.0156 1.9531-1.0156 3.4531v7.0625h-4.8906v-15.312h4.8906v2.5156c0.625-1 1.3438-1.7266 2.1562-2.1875 0.82031-0.46875 1.8008-0.70312 2.9375-0.70312 0.16406 0 0.34375 0.011719 0.53125 0.03125 0.19531 0.011719 0.47656 0.039062 0.84375 0.078125z"/>
  </symbol>
  <symbol id="c" overflow="visible">
   <path d="m17.641-7.7031v1.4062h-11.453c0.125 1.1484 0.53906 2.0078 1.25 2.5781 0.70703 0.57422 1.7031 0.85938 2.9844 0.85938 1.0312 0 2.082-0.14844 3.1562-0.45312 1.082-0.3125 2.1914-0.77344 3.3281-1.3906v3.7656c-1.1562 0.4375-2.3125 0.76562-3.4688 0.98438-1.1562 0.22656-2.3125 0.34375-3.4688 0.34375-2.7734 0-4.9297-0.70312-6.4688-2.1094-1.5312-1.4062-2.2969-3.3789-2.2969-5.9219 0-2.5 0.75391-4.4609 2.2656-5.8906 1.5078-1.4375 3.582-2.1562 6.2188-2.1562 2.4062 0 4.332 0.73047 5.7812 2.1875 1.4453 1.4492 2.1719 3.3828 2.1719 5.7969zm-5.0312-1.625c0-0.92578-0.27344-1.6719-0.8125-2.2344-0.54297-0.57031-1.25-0.85938-2.125-0.85938-0.94922 0-1.7188 0.26562-2.3125 0.79688s-0.96484 1.2969-1.1094 2.2969z"/>
  </symbol>
  <symbol id="f" overflow="visible">
   <path d="m9.2188-6.8906c-1.0234 0-1.793 0.17188-2.3125 0.51562-0.51172 0.34375-0.76562 0.85547-0.76562 1.5312 0 0.625 0.20703 1.1172 0.625 1.4688 0.41406 0.34375 0.98828 0.51562 1.7188 0.51562 0.92578 0 1.7031-0.32812 2.3281-0.98438 0.63281-0.66406 0.95312-1.4922 0.95312-2.4844v-0.5625zm7.4688-1.8438v8.7344h-4.9219v-2.2656c-0.65625 0.92969-1.3984 1.6055-2.2188 2.0312-0.82422 0.41406-1.8242 0.625-3 0.625-1.5859 0-2.8711-0.45703-3.8594-1.375-0.99219-0.92578-1.4844-2.1289-1.4844-3.6094 0-1.7891 0.61328-3.1016 1.8438-3.9375 1.2383-0.84375 3.1797-1.2656 5.8281-1.2656h2.8906v-0.39062c0-0.76953-0.30859-1.332-0.92188-1.6875-0.61719-0.36328-1.5703-0.54688-2.8594-0.54688-1.0547 0-2.0312 0.10547-2.9375 0.3125-0.89844 0.21094-1.7305 0.52344-2.5 0.9375v-3.7344c1.0391-0.25 2.0859-0.44141 3.1406-0.57812 1.0625-0.13281 2.125-0.20312 3.1875-0.20312 2.7578 0 4.75 0.54688 5.9688 1.6406 1.2266 1.0859 1.8438 2.8555 1.8438 5.3125z"/>
  </symbol>
  <symbol id="d" overflow="visible">
   <path d="m7.7031-19.656v4.3438h5.0469v3.5h-5.0469v6.5c0 0.71094 0.14062 1.1875 0.42188 1.4375s0.83594 0.375 1.6719 0.375h2.5156v3.5h-4.1875c-1.9375 0-3.3125-0.39844-4.125-1.2031-0.80469-0.8125-1.2031-2.1797-1.2031-4.1094v-6.5h-2.4219v-3.5h2.4219v-4.3438z"/>
  </symbol>
  <symbol id="k" overflow="visible">
   <path d="m12.766-13.078v-8.2031h4.9219v21.281h-4.9219v-2.2188c-0.66797 0.90625-1.4062 1.5703-2.2188 1.9844s-1.7578 0.625-2.8281 0.625c-1.8867 0-3.4336-0.75-4.6406-2.25-1.2109-1.5-1.8125-3.4258-1.8125-5.7812 0-2.3633 0.60156-4.2969 1.8125-5.7969 1.207-1.5 2.7539-2.25 4.6406-2.25 1.0625 0 2 0.21484 2.8125 0.64062 0.82031 0.42969 1.5664 1.0859 2.2344 1.9688zm-3.2188 9.9219c1.0391 0 1.8359-0.37891 2.3906-1.1406 0.55078-0.76953 0.82812-1.8828 0.82812-3.3438 0-1.457-0.27734-2.5664-0.82812-3.3281-0.55469-0.76953-1.3516-1.1562-2.3906-1.1562-1.043 0-1.8398 0.38672-2.3906 1.1562-0.55469 0.76172-0.82812 1.8711-0.82812 3.3281 0 1.4609 0.27344 2.5742 0.82812 3.3438 0.55078 0.76172 1.3477 1.1406 2.3906 1.1406z"/>
  </symbol>
  <symbol id="j" overflow="visible">
   <path d="m10.5-3.1562c1.0508 0 1.8516-0.37891 2.4062-1.1406 0.55078-0.76953 0.82812-1.8828 0.82812-3.3438 0-1.457-0.27734-2.5664-0.82812-3.3281-0.55469-0.76953-1.3555-1.1562-2.4062-1.1562-1.0547 0-1.8594 0.38672-2.4219 1.1562-0.55469 0.77344-0.82812 1.8828-0.82812 3.3281 0 1.4492 0.27344 2.5586 0.82812 3.3281 0.5625 0.77344 1.3672 1.1562 2.4219 1.1562zm-3.25-9.9219c0.67578-0.88281 1.4219-1.5391 2.2344-1.9688 0.82031-0.42578 1.7656-0.64062 2.8281-0.64062 1.8945 0 3.4453 0.75 4.6562 2.25 1.207 1.5 1.8125 3.4336 1.8125 5.7969 0 2.3555-0.60547 4.2812-1.8125 5.7812-1.2109 1.5-2.7617 2.25-4.6562 2.25-1.0625 0-2.0078-0.21094-2.8281-0.625-0.8125-0.42578-1.5586-1.0859-2.2344-1.9844v2.2188h-4.8906v-21.281h4.8906z"/>
  </symbol>
  <symbol id="i" overflow="visible">
   <path d="m0.34375-15.312h4.8906l4.125 10.391 3.5-10.391h4.8906l-6.4375 16.766c-0.64844 1.6953-1.4023 2.8828-2.2656 3.5625-0.86719 0.6875-2 1.0312-3.4062 1.0312h-2.8438v-3.2188h1.5312c0.83203 0 1.4375-0.13672 1.8125-0.40625 0.38281-0.26172 0.67969-0.73047 0.89062-1.4062l0.14062-0.42188z"/>
  </symbol>
  <symbol id="h" overflow="visible">
   <path d="m14.953-3.7188h-8.2188l-1.3125 3.7188h-5.2812l7.5625-20.406h6.2656l7.5625 20.406h-5.2812zm-6.9062-3.7812h5.5781l-2.7812-8.125z"/>
  </symbol>
  <symbol id="b" overflow="visible">
   <path d="m9.6406-12.188c-1.0859 0-1.9141 0.39062-2.4844 1.1719-0.57422 0.78125-0.85938 1.9062-0.85938 3.375s0.28516 2.5938 0.85938 3.375c0.57031 0.77344 1.3984 1.1562 2.4844 1.1562 1.0625 0 1.875-0.38281 2.4375-1.1562 0.57031-0.78125 0.85938-1.9062 0.85938-3.375s-0.28906-2.5938-0.85938-3.375c-0.5625-0.78125-1.375-1.1719-2.4375-1.1719zm0-3.5c2.6328 0 4.6914 0.71484 6.1719 2.1406 1.4766 1.418 2.2188 3.3867 2.2188 5.9062 0 2.5117-0.74219 4.4805-2.2188 5.9062-1.4805 1.418-3.5391 2.125-6.1719 2.125-2.6484 0-4.7148-0.70703-6.2031-2.125-1.4922-1.4258-2.2344-3.3945-2.2344-5.9062 0-2.5195 0.74219-4.4883 2.2344-5.9062 1.4883-1.4258 3.5547-2.1406 6.2031-2.1406z"/>
  </symbol>
  <symbol id="e" overflow="visible">
   <path d="m17.75-9.3281v9.3281h-4.9219v-7.1406c0-1.3203-0.03125-2.2344-0.09375-2.7344s-0.16797-0.86719-0.3125-1.1094c-0.1875-0.3125-0.44922-0.55469-0.78125-0.73438-0.32422-0.17578-0.69531-0.26562-1.1094-0.26562-1.0234 0-1.8242 0.39844-2.4062 1.1875-0.58594 0.78125-0.875 1.8711-0.875 3.2656v7.5312h-4.8906v-15.312h4.8906v2.2344c0.73828-0.88281 1.5195-1.5391 2.3438-1.9688 0.83203-0.42578 1.75-0.64062 2.75-0.64062 1.7695 0 3.1133 0.54688 4.0312 1.6406 0.91406 1.0859 1.375 2.6562 1.375 4.7188z"/>
  </symbol>
  <symbol id="g" overflow="visible">
   <path d="m2.5781-20.406h8.7344c2.5938 0 4.582 0.57812 5.9688 1.7344 1.3945 1.1484 2.0938 2.7891 2.0938 4.9219 0 2.1367-0.69922 3.7812-2.0938 4.9375-1.3867 1.1562-3.375 1.7344-5.9688 1.7344h-3.4844v7.0781h-5.25zm5.25 3.8125v5.7031h2.9219c1.0195 0 1.8047-0.25 2.3594-0.75 0.5625-0.5 0.84375-1.2031 0.84375-2.1094 0-0.91406-0.28125-1.6172-0.84375-2.1094-0.55469-0.48828-1.3398-0.73438-2.3594-0.73438z"/>
  </symbol>
  <symbol id="u" overflow="visible">
   <path d="m2.8594-5.2969h4.9219v5.2969h-4.9219z"/>
  </symbol>
  <symbol id="t" overflow="visible">
   <path d="m10.75-12.516c0.82031 0 1.4453-0.17969 1.875-0.54688 0.4375-0.36328 0.65625-0.89844 0.65625-1.6094 0-0.69531-0.21875-1.2266-0.65625-1.5938-0.42969-0.375-1.0547-0.5625-1.875-0.5625h-2.9219v4.3125zm0.17188 8.9375c1.0625 0 1.8594-0.22266 2.3906-0.67188 0.53125-0.44531 0.79688-1.125 0.79688-2.0312 0-0.88281-0.26562-1.5469-0.79688-1.9844-0.52344-0.4375-1.3203-0.65625-2.3906-0.65625h-3.0938v5.3438zm4.8906-7.3438c1.1328 0.32422 2.0078 0.92969 2.625 1.8125 0.625 0.88672 0.9375 1.9688 0.9375 3.25 0 1.9688-0.66797 3.4375-2 4.4062-1.3359 0.96875-3.3555 1.4531-6.0625 1.4531h-8.7344v-20.406h7.8906c2.832 0 4.8828 0.42969 6.1562 1.2812 1.2812 0.85547 1.9219 2.2266 1.9219 4.1094 0 1-0.23438 1.8516-0.70312 2.5469-0.46875 0.6875-1.1484 1.2031-2.0312 1.5469z"/>
  </symbol>
  <symbol id="s" overflow="visible">
   <path d="m0.98438-15.312h4.7656l2.5625 10.547 2.5781-10.547h4.0938l2.5781 10.438 2.5781-10.438h4.75l-4.0312 15.312h-5.3438l-2.5781-10.531-2.5781 10.531h-5.3438z"/>
  </symbol>
  <symbol id="r" overflow="visible">
   <path d="m12.422-21.281v3.2188h-2.7031c-0.6875 0-1.1719 0.125-1.4531 0.375-0.27344 0.25-0.40625 0.6875-0.40625 1.3125v1.0625h4.1875v3.5h-4.1875v11.812h-4.8906v-11.812h-2.4375v-3.5h2.4375v-1.0625c0-1.6641 0.46094-2.8984 1.3906-3.7031 0.92578-0.80078 2.3672-1.2031 4.3281-1.2031z"/>
  </symbol>
  <symbol id="q" overflow="visible">
   <path d="m16.547-12.766c0.61328-0.94531 1.3477-1.6719 2.2031-2.1719 0.85156-0.5 1.7891-0.75 2.8125-0.75 1.7578 0 3.0977 0.54688 4.0156 1.6406 0.92578 1.0859 1.3906 2.6562 1.3906 4.7188v9.3281h-4.9219v-7.9844-0.35938c0.007813-0.13281 0.015625-0.32031 0.015625-0.5625 0-1.082-0.16406-1.8633-0.48438-2.3438-0.3125-0.48828-0.82422-0.73438-1.5312-0.73438-0.92969 0-1.6484 0.38672-2.1562 1.1562-0.51172 0.76172-0.77344 1.8672-0.78125 3.3125v7.5156h-4.9219v-7.9844c0-1.6953-0.14844-2.7852-0.4375-3.2656-0.29297-0.48828-0.8125-0.73438-1.5625-0.73438-0.9375 0-1.6641 0.38672-2.1719 1.1562-0.51172 0.76172-0.76562 1.8594-0.76562 3.2969v7.5312h-4.9219v-15.312h4.9219v2.2344c0.60156-0.86328 1.2891-1.5156 2.0625-1.9531 0.78125-0.4375 1.6406-0.65625 2.5781-0.65625 1.0625 0 2 0.25781 2.8125 0.76562 0.8125 0.51172 1.4258 1.2305 1.8438 2.1562z"/>
  </symbol>
  <symbol id="p" overflow="visible">
   <path d="m17.75-9.3281v9.3281h-4.9219v-7.1094c0-1.3438-0.03125-2.2656-0.09375-2.7656s-0.16797-0.86719-0.3125-1.1094c-0.1875-0.3125-0.44922-0.55469-0.78125-0.73438-0.32422-0.17578-0.69531-0.26562-1.1094-0.26562-1.0234 0-1.8242 0.39844-2.4062 1.1875-0.58594 0.78125-0.875 1.8711-0.875 3.2656v7.5312h-4.8906v-21.281h4.8906v8.2031c0.73828-0.88281 1.5195-1.5391 2.3438-1.9688 0.83203-0.42578 1.75-0.64062 2.75-0.64062 1.7695 0 3.1133 0.54688 4.0312 1.6406 0.91406 1.0859 1.375 2.6562 1.375 4.7188z"/>
  </symbol>
  <symbol id="o" overflow="visible">
   <path d="m2.5781-20.406h5.875l7.4219 14v-14h4.9844v20.406h-5.875l-7.4219-14v14h-4.9844z"/>
  </symbol>
  <symbol id="n" overflow="visible">
   <path d="m2.1875-5.9688v-9.3438h4.9219v1.5312c0 0.83594-0.007813 1.875-0.015625 3.125-0.011719 1.25-0.015625 2.0859-0.015625 2.5 0 1.2422 0.03125 2.1328 0.09375 2.6719 0.070313 0.54297 0.17969 0.93359 0.32812 1.1719 0.20703 0.32422 0.47266 0.57422 0.79688 0.75 0.32031 0.16797 0.69141 0.25 1.1094 0.25 1.0195 0 1.8203-0.39062 2.4062-1.1719 0.58203-0.78125 0.875-1.8672 0.875-3.2656v-7.5625h4.8906v15.312h-4.8906v-2.2188c-0.74219 0.89844-1.5234 1.5586-2.3438 1.9844-0.82422 0.41406-1.7344 0.625-2.7344 0.625-1.7617 0-3.1055-0.53906-4.0312-1.625-0.92969-1.082-1.3906-2.6602-1.3906-4.7344z"/>
  </symbol>
  <symbol id="m" overflow="visible">
   <path d="m2.3594-15.312h4.8906v15.031c0 2.0508-0.49609 3.6172-1.4844 4.7031-0.98047 1.082-2.4062 1.625-4.2812 1.625h-2.4219v-3.2188h0.85938c0.92578 0 1.5625-0.21094 1.9062-0.625 0.35156-0.41797 0.53125-1.2461 0.53125-2.4844zm0-5.9688h4.8906v4h-4.8906z"/>
  </symbol>
  <symbol id="l" overflow="visible">
   <path d="m14.719-14.828v3.9844c-0.65625-0.45703-1.3242-0.79688-2-1.0156-0.66797-0.21875-1.3594-0.32812-2.0781-0.32812-1.3672 0-2.4336 0.40234-3.2031 1.2031-0.76172 0.79297-1.1406 1.9062-1.1406 3.3438 0 1.4297 0.37891 2.543 1.1406 3.3438 0.76953 0.79297 1.8359 1.1875 3.2031 1.1875 0.75781 0 1.4844-0.10938 2.1719-0.32812 0.6875-0.22656 1.3203-0.56641 1.9062-1.0156v4c-0.76172 0.28125-1.5391 0.48828-2.3281 0.625-0.78125 0.14453-1.5742 0.21875-2.375 0.21875-2.7617 0-4.9219-0.70703-6.4844-2.125-1.5547-1.4141-2.3281-3.3828-2.3281-5.9062 0-2.5312 0.77344-4.5039 2.3281-5.9219 1.5625-1.4141 3.7227-2.125 6.4844-2.125 0.80078 0 1.5938 0.074219 2.375 0.21875 0.78125 0.13672 1.5547 0.35156 2.3281 0.64062z"/>
  </symbol>
 </defs>
 <g>
  <path d="m439.45 393.11-29.344 141.23c0 12.312-29.086 22.277-64.941 22.277-35.844 0-64.934-9.957-64.934-22.277l-29.348-141.23c6.3828 15.898 46.16 28.164 94.277 28.164 48.125 0.003906 87.918-12.266 94.289-28.164z"/>
  <path d="m290.57 236.5c-53.453 14.875-91.559 85.176 32.406 105.13 0 0 97.656-117.39-32.406-105.13zm18.918 94.809s-6.668-3.7305-14.402-10.762c-0.76562 1.6172-1.9805 3.2773-3.2891 4.6328 2.0156 1.1094 4.1445 2.1719 6.4023 3.1992 17.074 7.8164-3.0391 4.4023-3.0391 4.4023s-8.9609-2.4961-18.324-8.6953c-4.5195-2.3008-8.2812-4.6797-6.3711-4.6641l0.21875 0.011719c-12.465-10.77-22.172-28.918-7.5391-57.527 8.2109-16.066 8.0586-6.4023 4.9297-0.089844-3.7539 7.6094-15.16 35.438 14.125 57.277 2.9297-1.2266 4.7305-3.4102 6.9336-4.4648-5.7383-6.25-11.34-14.145-14.684-23.559-5.7305-0.47656-11.754-1.5391-9.7109-2.2969l3.4219-1.293c1.9609-0.29688 3.4844-0.81641 4.7617-1.4961-2.4062-9.5586-2.3867-20.48 1.9336-32.602 6.4844-18.234 4.2578-1.707 4.2578-1.707s-1.3984 10.707 1.8828 25.207c0.86719-0.74609 1.9258-1.25 3.4336-1.3438 6.0039-0.39062 3.1641 9.6875 0.37891 13.805 4.7812 12.242 13.262 25.57 28.164 36.941 12.043 9.1445-3.4844 5.0234-3.4844 5.0234zm8.5859-4.8164c-4.1055-0.56641-10.098-11.441-16.062-25.117-5.957-2.5938-13.82-7.0156-11.223-6.957l3.6562 0.054687c1.8711 0.42188 3.4336 0.50391 4.793 0.39844-9.5938-23.277-18.418-50.859-18.418-50.859 3.3047 3.4961 15.629 26.848 25.379 47.828 2.3125-1.793 4.2109-3.4883 7.5547-2.4297 5.4141 1.7188 0.74609 8.9336-3.1523 12.207 6.2617 14.168 10.191 25.266 7.4727 24.875zm4.4961-4.1289c7.0625-49.039-24.875-78.199-24.875-78.199s-11.934-10.812 3.9023-1.5625c42.324 24.762 26.473 81.219 26.473 81.219s-7.6328 13.461-5.5-1.457zm23.844-35.605c-0.035156 0.011719-0.050781 0-0.10156 0-0.71875 15.68-7.8438 28.582-7.8438 28.582s-11.145 16.016-4.793-1.2422c4.3164-11.781 5.7617-21.688 5.3711-30.012-5.6016-2.6094-11.793-6.2148-9.4453-6.1836l3.6562 0.078125c2.043 0.46094 3.7422 0.51953 5.1953 0.35156-3.5938-22.355-21.152-31.41-27.066-33.977-6.0469-2.625-12.281-9.7109 3.3203-3.2461 20.137 8.3555 28.332 21.172 30.812 33.824 2.0938-1.6289 3.9609-3.0117 7.0508-2.0234 7.0469 2.2344-3.0195 13.848-6.1562 13.848z"/>
  <path d="m295.07 320.54c-0.76562 1.6172-1.9805 3.2773-3.2891 4.6328-3.6016-1.9531-6.793-4.0039-9.6094-6.0938 2.9297-1.2266 4.7305-3.4102 6.9336-4.4648 1.9883 2.1797 4.0156 4.168 5.9648 5.9258z"/>
  <path d="m284.79 289.33c-0.58203 0.85547-1.1602 1.4453-1.6562 1.6641-1.1367 0.45312-4.8672 0.39844-8.6953 0.074218-5.7305-0.47656-11.754-1.5391-9.7109-2.2969l3.4219-1.293c1.9609-0.29687 3.4844-0.81641 4.7617-1.4961 4.6797-2.4805 5.4492-6.8828 8.0703-9.1055 0.86719-0.74609 1.9258-1.25 3.4336-1.3438 5.9922-0.39844 3.1602 9.6836 0.375 13.797z"/>
  <path d="m346.41 286.76c-0.035156 0.011719-0.050781 0-0.10156 0-1.1914-0.054687-4.1484-1.2109-7.2695-2.6641-5.6016-2.6094-11.793-6.2148-9.4453-6.1836l3.6562 0.078125c2.043 0.46094 3.7422 0.51953 5.1953 0.35156 3.1992-0.41406 5.2148-1.9805 7.0625-3.3984 2.0938-1.6289 3.9609-3.0117 7.0508-2.0234 7.0547 2.2266-3.0117 13.84-6.1484 13.84z"/>
  <path d="m310.61 301.62c-1.1602 1.0078-2.2734 1.625-3.0078 1.6406-0.91797 0-3.0977-0.80469-5.5898-1.8867-5.957-2.5938-13.82-7.0156-11.223-6.957l3.6562 0.054688c1.8711 0.42188 3.4336 0.50391 4.793 0.39844 3.1211-0.29297 5.168-1.6758 6.9609-3.0312 2.3125-1.793 4.2109-3.4883 7.5547-2.4297 5.4219 1.7227 0.75 8.9336-3.1445 12.211z"/>
  <path d="m291.79 325.18c-1.6914 1.7969-3.4883 3.0898-4.5117 3.0898-1.5 0-6.2891-2.0547-10.449-4.1836-2.0703-1.3789-4.1602-2.9219-6.1602-4.6523l3.4492 0.054687c3.543 0.80469 6.0742 0.4375 8.0625-0.39844 2.8203 2.0898 6.0078 4.1406 9.6094 6.0898z"/>
  <path d="m295.07 320.54c-1.9531-1.7578-3.9766-3.7461-5.957-5.9258 1.2227-0.55859 2.5664-0.74609 4.3164-0.20703 2.9297 0.9375 2.9023 3.4805 1.6406 6.1328z"/>
  <path d="m462.82 281.9c-15.938-36.395-97.973-45.305-125.52 54.652 0 0.003907 135.9 40.75 125.52-54.652zm-112.89 41.457s4.6367-6.1445 13.211-14.035c-1.9023-0.12891-3.8242-0.58203-5.3945-1.1641-1.3594 1.8359-2.6836 3.7578-3.9805 5.7734-9.8008 15.227-5.125-1.0625-5.125-1.0625s3.2539-7.5195 10.879-16.402c2.8828-4.0938 5.8242-7.6484 5.7305-6.1953l-0.023437 0.17969c13.16-12.555 34.957-25.129 68.359-22.164 18.777 1.6562 7.332 4.3125-0.054688 3.7305-8.8945-0.68359-41.484-1.4102-68.254 27.094 1.3477 1.8711 3.8984 2.6211 5.0469 3.9805 7.5938-6.1367 17.113-12.641 28.375-17.875 0.73438-4.5078 2.1914-9.3789 3.0312-8.0469l1.4219 2.2383c0.29688 1.3984 0.875 2.4062 1.625 3.1758 11.391-4.5469 24.316-7.6562 38.539-7.8281 21.387-0.28125 1.8828 2.7539 1.8828 2.7539s-12.641 1.9922-29.898 8.6172c0.84375 0.46094 1.4219 1.1211 1.4727 2.2383 0.29688 4.4414-11.559 5.1562-16.348 4.2266-14.648 7.125-30.695 17.383-44.633 31.961-11.223 11.781-5.8633-1.1953-5.8633-1.1953zm5.4336 5.1523c0.80469-3.2891 13.883-10.938 30.258-19.395 3.2812-5.2656 8.7461-12.5 8.5977-10.523l-0.18359 2.8008c-0.55469 1.5469-0.69922 2.7617-0.61719 3.7539 27.867-13.934 60.809-28.516 60.809-28.516-4.2383 3.5039-32.289 19.539-57.434 32.945 2.0312 1.2656 3.9922 2.2188 2.6328 5.0664-2.207 4.6016-10.602 3.1133-14.348 1.0977-16.992 8.7773-30.254 14.953-29.715 12.77zm4.7422 2.2461c57.859-8.6367 93.402-41.25 93.402-41.25s13.184-12.168 1.7188 2.5195c-30.664 39.246-97.004 43.32-97.004 43.32s-15.695-1.9648 1.8828-4.5898zm41.418 7.9609c-0.011719-0.027344 0-0.054688 0.003906-0.089844-18.543 3.9258-33.605 2.1953-33.605 2.1953s-18.609-3.8906 1.6172-3.9922c13.816-0.089844 25.496-1.8086 35.363-4.4922 3.2891-4.9961 7.7266-10.734 7.6094-8.9492l-0.19531 2.8164c-0.59766 1.6875-0.73438 2.9844-0.58203 4.0547 26.578-9.1055 37.867-25.066 41.082-30.289 3.3203-5.332 11.906-12.105 3.7422 1.6055-10.527 17.691-25.973 27.578-41.02 33.074 1.8555 1.1328 3.4375 2.1602 2.1719 4.7891-2.8633 6-16.289 1.6484-16.188-0.72266z"/>
  <path d="m363.16 309.32c-1.9023-0.12891-3.8242-0.58203-5.3945-1.1641 2.4297-3.3164 4.9609-6.3164 7.5312-9.0508 1.3477 1.8711 3.8984 2.6211 5.0469 3.9805-2.6367 2.1523-5.0508 4.2578-7.1836 6.2344z"/>
  <path d="m400.44 292.59c-0.99219-0.21875-1.6914-0.46484-1.9023-0.77734-0.50781-0.75781-0.32031-3.6055 0.17969-6.6016 0.73438-4.5078 2.1914-9.3789 3.0312-8.0469l1.4219 2.2383c0.29688 1.3984 0.875 2.4062 1.625 3.1758 2.7773 2.8711 7.9727 2.1992 10.523 3.5391 0.84375 0.46094 1.4219 1.1211 1.4727 2.2383 0.29297 4.4492-11.566 5.1641-16.352 4.2344z"/>
  <path d="m401.53 338.71c-0.011719-0.027344 0-0.054688 0.003906-0.089844 0.11719-0.91406 1.5625-3.4766 3.3828-6.2891 3.2891-4.9961 7.7266-10.734 7.6094-8.9492l-0.19531 2.8164c-0.59766 1.6875-0.73438 2.9844-0.58203 4.0547 0.37109 2.3008 2.1914 3.3945 3.8008 4.3906 1.8555 1.1328 3.4375 2.1602 2.1719 4.7891-2.8672 6-16.293 1.6484-16.191-0.72266z"/>
  <path d="m385.09 315.75c-1.1523-0.61719-1.8633-1.2812-1.8633-1.832 0.039063-0.6875 1.0469-2.5938 2.4141-4.793 3.2812-5.2656 8.7461-12.5 8.5977-10.523l-0.18359 2.8008c-0.55469 1.5469-0.69922 2.7617-0.61719 3.7539 0.24609 2.3008 1.8203 3.457 3.3828 4.4297 2.0312 1.2656 3.9922 2.2188 2.6328 5.0664-2.2188 4.6016-10.613 3.1055-14.363 1.0977z"/>
  <path d="m357.76 308.16c-2.0703-0.77734-3.5391-1.7578-3.5-2.5664 0.042969-1.1406 2.6211-5.3633 5.2695-9.1289 1.7031-1.9805 3.6055-4.0156 5.7109-6.0156l-0.16797 2.6367c-1.0586 2.9297-0.70703 4.7422 0.21875 6.0195-2.5742 2.7383-5.1055 5.7461-7.5312 9.0547z"/>
  <path d="m363.16 309.32c2.1406-1.9805 4.5469-4.082 7.1836-6.2344 0.64453 0.78906 0.81641 1.7461 0.11328 3.2461-1.1992 2.4844-4.207 3.1875-7.2969 2.9883z"/>
  <path d="m190.05 368.27c5.0195 27.188 62.957 45.82 100.95-17.98-0.007812 0-91.289-48.527-100.95 17.98zm89.402-10.941s-4.4805 3.4648-12.105 7.5391c1.3398 0.37109 2.6641 0.96484 3.6953 1.6133 1.3203-1.043 2.6328-2.1562 3.9375-3.3203 9.8438-8.8594 3.5156 1.4961 3.5156 1.4961s-3.707 4.6367-10.852 9.5078c-2.8164 2.3477-5.6016 4.3164-5.2578 3.332l0.035156-0.11719c-11.805 6.5352-29.895 11.762-53.613 4.6367-13.324-4.0078-4.5117-4.0664 0.71875-2.543 6.3398 1.832 29.855 7.3203 54.426-7.9844-0.64453-1.4844-2.3672-2.3906-2.9453-3.4883-6.625 3.0195-14.699 5.9883-23.812 7.8164-1.3477 2.9688-3.2812 6.0547-3.6328 5.0234l-0.64453-1.7422c0.035156-0.99609-0.19531-1.7812-0.60547-2.4258-9.0898 1.3555-19.023 1.4961-29.391-0.56641-15.566-3.0781-0.86719-2.1562-0.86719-2.1562s9.5352 0.57031 23.25-1.293c-0.53125-0.44922-0.81641-0.98047-0.67188-1.7461 0.59766-3.0625 9.3242-1.7422 12.633-0.37109 11.918-2.6133 25.418-7.1328 38.148-14.926 10.266-6.3008 4.0391 1.7148 4.0391 1.7148zm-3.0234-4.3398c-1.1719 2.1094-12.023 5.332-25.453 8.5664-3.3203 3.0859-8.5859 7.1641-8.125 5.8398l0.64453-1.875c0.66797-0.96484 0.98438-1.7656 1.1133-2.4531-22.73 5.2188-49.262 10.098-49.262 10.098 3.707-1.7422 26.945-8.3477 47.621-13.625-1.2617-1.1797-2.5039-2.1289-1.0078-3.8594 2.4297-2.7812 8.25-0.48828 10.617 1.4688 13.906-3.3828 24.645-5.5625 23.852-4.1602zm-3.0352-2.2578c-43.547-2.9609-75.215 13.793-75.215 13.793s-11.762 6.2539-0.80469-1.9805c29.328-22.02 78.211-14.648 78.211-14.648-0.003906-0.003907 11.051 3.7461-2.1914 2.8359zm-28.617-11.75c0 0.035156-0.015625 0.050781-0.035156 0.054687 14.172 0.15625 24.793 3.6445 24.793 3.6445s12.812 5.5039-1.8945 2.4766c-10.039-2.0664-18.828-2.6719-26.48-2.3633-3.2812 2.9023-7.5391 6.1211-7.1289 4.9297l0.65625-1.8867c0.74609-1.0547 1.0703-1.9219 1.1484-2.6719-20.934 2.1523-31.992 11.273-35.281 14.32-3.3477 3.1367-10.809 6.4336-2.4258-1.6406 10.832-10.434 23.832-14.816 35.746-16.246-1.1406-1.0469-2.1172-1.9883-0.71875-3.5938 3.1484-3.6328 12.109 1.3828 11.621 2.9766z"/>
  <path d="m267.35 364.86c1.3398 0.37109 2.6641 0.96484 3.6953 1.6133-2.3594 1.8711-4.7422 3.5352-7.0938 5.0117-0.64453-1.4844-2.3672-2.3906-2.9453-3.4883 2.2969-1.0586 4.418-2.125 6.3438-3.1367z"/>
  <path d="m237.26 370.54c0.69531 0.28125 1.1406 0.57031 1.2305 0.81641 0.24219 0.59766-0.41406 2.4961-1.3047 4.457-1.3477 2.9688-3.2812 6.0547-3.6328 5.0234l-0.64453-1.7422c0.035156-0.99609-0.19531-1.7812-0.60547-2.4258-1.4961-2.375-5.3945-2.7031-7-4.0156-0.53125-0.44922-0.81641-0.98047-0.67188-1.7461 0.59375-3.0547 9.3203-1.7305 12.629-0.36719z"/>
  <path d="m244.78 338.98c0 0.035156-0.015625 0.050781-0.035156 0.054687-0.23438 0.60547-1.7578 2.1406-3.5859 3.7617-3.2812 2.9023-7.5391 6.1211-7.1289 4.9297l0.65625-1.8867c0.74609-1.0547 1.0703-1.9219 1.1484-2.6719 0.14062-1.625-0.96484-2.6445-1.9648-3.5742-1.1406-1.0469-2.1172-1.9883-0.71875-3.5938 3.1562-3.6289 12.117 1.3867 11.629 2.9805z"/>
  <path d="m252.58 357.14c0.72656 0.58203 1.1211 1.1406 1.0117 1.5195-0.14062 0.46484-1.2148 1.6016-2.6133 2.8945-3.3203 3.0859-8.5859 7.1641-8.125 5.8398l0.64453-1.875c0.66797-0.96484 0.98438-1.7656 1.1133-2.4531 0.24219-1.6055-0.69922-2.6367-1.6406-3.5273-1.2617-1.1797-2.5039-2.1289-1.0078-3.8594 2.4297-2.7812 8.25-0.48828 10.617 1.4609z"/>
  <path d="m271.04 366.48c1.3594 0.84375 2.2461 1.7422 2.0703 2.2734-0.23438 0.77344-2.8633 3.2539-5.4727 5.4102-1.5859 1.082-3.3203 2.1797-5.2266 3.2148l0.59766-1.7656c1.3047-1.832 1.3711-3.1211 0.93359-4.1211 2.3594-1.4805 4.7422-3.1445 7.0977-5.0117z"/>
  <path d="m267.35 364.86c-1.9258 1.0117-4.0469 2.0781-6.3438 3.1367-0.33594-0.62891-0.29297-1.3047 0.50391-2.2227 1.3125-1.5156 3.6172-1.5312 5.8398-0.91406z"/>
  <path d="m295.68 143.15c-23.102 9.6836-28.934 63.055 34.383 83.016 0-0.003906 26.137-87.898-34.383-83.016zm26.047 74.508s-3.8789-3.1484-8.875-8.8945c-0.085937 1.2383-0.37109 2.4766-0.74609 3.4961 1.1641 0.92969 2.3789 1.8359 3.6523 2.7148 9.625 6.6992-0.68359 3.3203-0.68359 3.3203s-4.7695-2.2617-10.387-7.4258c-2.582-1.9727-4.832-3.9609-3.8984-3.875l0.11719 0.015624c-7.9414-8.832-15.863-23.312-13.906-45.059 1.1016-12.227 2.7422-4.7031 2.3594 0.10156-0.45312 5.7969-0.98047 27.055 17.035 45.098 1.1914-0.83984 1.6562-2.4922 2.5352-3.2188-3.8789-5.0664-7.9844-11.418-11.273-18.867-2.8555-0.57031-5.9453-1.625-5.0977-2.1406l1.418-0.88672c0.89453-0.16797 1.5273-0.51562 2.0156-0.99609-2.8555-7.5273-4.793-16.023-4.8789-25.312-0.12891-13.973 1.7461-1.1719 1.7461-1.1719s1.2383 8.2812 5.4023 19.691c0.28125-0.55469 0.71094-0.91406 1.418-0.92969 2.8164-0.09375 3.2461 7.6602 2.6562 10.758 4.4727 9.6992 10.941 20.395 20.156 29.766 7.4414 7.5742-0.76563 3.8164-0.76563 3.8164zm3.2656-3.4375c-2.0703-0.59375-6.8945-9.2734-12.219-20.137-3.3203-2.2383-7.8945-5.9453-6.6484-5.8125l1.7734 0.16406c0.96875 0.40234 1.7344 0.51953 2.3672 0.48047-8.7695-18.457-17.93-40.254-17.93-40.254 2.2109 2.8281 12.312 21.461 20.746 38.141 0.80469-1.3008 1.418-2.5586 3.2305-1.6172 2.9102 1.5273 1.9414 6.9766 0.66016 9.3984 5.5273 11.25 9.418 20.027 8.0195 19.637zm1.4375-3.0547c-5.3359-37.934-25.93-61.785-25.93-61.785s-7.6875-8.8477 1.5977-1.0742c24.82 20.789 27.242 64.188 27.242 64.188s-1.2812 10.199-2.9102-1.3281zm5.1406-26.879c-0.011718 0.003906-0.027343 0-0.050781-0.003906 2.4531 12.18 1.3164 21.973 1.3164 21.973s-2.5078 12.074-2.5312-1.125c-0.015626-9.0273-1.1016-16.684-2.7656-23.184-3.1602-2.2383-6.793-5.2539-5.6523-5.1406l1.7695 0.18359c1.0625 0.4375 1.8945 0.53906 2.5742 0.46484-5.7227-17.535-15.809-25.219-19.113-27.418-3.3828-2.2617-7.6484-7.9922 1.0234-2.4141 11.199 7.2344 17.426 17.5 20.875 27.445 0.71875-1.1914 1.3711-2.1992 3.0391-1.3203 3.8164 1.9766 1.0273 10.652-0.48438 10.539z"/>
  <path d="m312.85 208.76c-0.085937 1.2383-0.37109 2.4766-0.74609 3.4961-2.1016-1.6523-4.0039-3.3711-5.7188-5.1016 1.1914-0.83984 1.6562-2.4922 2.5352-3.2188 1.3516 1.7656 2.6836 3.3828 3.9297 4.8242z"/>
  <path d="m302.34 184.08c-0.13281 0.64453-0.29688 1.0977-0.50391 1.2305-0.48047 0.32031-2.2734 0.14453-4.1836-0.24609-2.8555-0.57031-5.9453-1.625-5.0977-2.1406l1.418-0.88672c0.89453-0.16797 1.5273-0.51562 2.0156-0.99609 1.8242-1.7461 1.4062-5.1641 2.2734-6.793 0.28125-0.55469 0.71094-0.91406 1.418-0.92969 2.8281-0.089843 3.2539 7.6602 2.6602 10.762z"/>
  <path d="m331.57 184.29c-0.011718 0.003906-0.027343 0-0.050781-0.003906-0.57812-0.078125-2.2109-1.0859-3.9766-2.3359-3.1602-2.2383-6.793-5.2539-5.6523-5.1406l1.7695 0.18359c1.0625 0.4375 1.8945 0.53906 2.5742 0.46484 1.457-0.20312 2.1602-1.3594 2.7891-2.3867 0.71875-1.1914 1.3711-2.1992 3.0391-1.3203 3.8086 1.9766 1.0195 10.652-0.49219 10.539z"/>
  <path d="m316.98 194.58c-0.39062 0.73438-0.81641 1.1758-1.1641 1.1758-0.44922-0.042968-1.6406-0.73828-3.0391-1.6758-3.3203-2.2383-7.8945-5.9453-6.6484-5.8125l1.7734 0.16406c0.96875 0.40234 1.7344 0.51953 2.3672 0.48047 1.4766-0.11328 2.1992-1.1211 2.8164-2.1094 0.80469-1.3008 1.418-2.5586 3.2305-1.6172 2.9102 1.5273 1.9414 6.9766 0.66406 9.3945z"/>
  <path d="m312.11 212.25c-0.49219 1.332-1.1367 2.2734-1.6406 2.2227-0.72266-0.039062-3.3867-1.8125-5.7773-3.6133-1.25-1.1523-2.5195-2.4375-3.7852-3.8516l1.6562 0.16797c1.8594 0.74609 3.0234 0.55859 3.832-0.027343 1.7109 1.7305 3.6133 3.4492 5.7148 5.1016z"/>
  <path d="m312.85 208.76c-1.25-1.4375-2.582-3.0586-3.9297-4.8281 0.48828-0.39063 1.1016-0.5 2.043-0.003907 1.582 0.82812 2.0352 2.8086 1.8867 4.832z"/>
  <path d="m168.66 155.86c-19.965 15.133-12.297 68.273 53.988 71.832 0.003906-0.003906 3.4023-91.637-53.988-71.832zm43.785 65.668s-4.5352-2.082-10.809-6.4062c0.23438 1.2148 0.25781 2.4961 0.15234 3.5664 1.3594 0.60938 2.75 1.1914 4.2188 1.7305 10.992 4.0703 0.15625 3.3828 0.15625 3.3828s-5.1797-1.0078-11.906-4.6094c-2.9844-1.25-5.6602-2.6133-4.7422-2.7617l0.10547-0.011719c-9.8711-6.5742-21.152-18.625-24.691-40.176-1.9805-12.105 1.4961-5.2305 2.3242-0.48047 1.0039 5.7305 5.7773 26.434 27.719 39.43 0.95312-1.1211 0.99219-2.832 1.6641-3.7539-5.0273-3.9531-10.586-9.0664-15.617-15.469-2.9102 0.15625-6.1602-0.078125-5.4727-0.80078l1.1602-1.2227c0.81641-0.37891 1.3438-0.875 1.6953-1.457-4.6367-6.5859-8.6406-14.332-11.027-23.301-3.6133-13.5 1.3984-1.5781 1.3984-1.5781s3.2656 7.7109 10.137 17.73c0.15234-0.60547 0.46484-1.0547 1.1367-1.2539 2.7266-0.78906 5.0625 6.6094 5.2461 9.7617 6.7695 8.2812 15.691 17.02 26.945 23.801 9.1055 5.4688 0.20703 3.8789 0.20703 3.8789zm2.3164-4.1484c-2.1445-0.0625-8.9805-7.2539-16.852-16.453-3.793-1.3203-9.1445-3.7969-7.8945-3.9688l1.7539-0.27344c1.0547 0.13281 1.832 0.066406 2.4258-0.12891-13.086-15.691-27.402-34.512-27.402-34.512 2.8438 2.1953 17.27 17.711 29.605 31.758 0.46484-1.457 0.73828-2.8281 2.7266-2.3516 3.1914 0.74609 3.6172 6.2734 2.9844 8.9219 8.1445 9.5078 14.086 17.055 12.652 17.008zm0.63281-3.3086c-14.633-35.402-40.516-53.375-40.516-53.375s-9.6562-6.6406 1.2695-1.4336c29.223 13.957 42.398 55.367 42.398 55.367s1.3047 10.191-3.1523-0.55859zm-1.7148-27.305h-0.054688c5.4102 11.176 6.7539 20.949 6.7539 20.949s0.57812 12.32-2.7422-0.46484c-2.2578-8.7344-5.207-15.871-8.4453-21.758-3.6172-1.3789-7.8867-3.3945-6.7656-3.5742l1.7695-0.26172c1.1406 0.15234 1.9766 0.054687 2.6094-0.19141-9.9102-15.551-21.59-20.48-25.34-21.789-3.8477-1.3477-9.4023-5.8398 0.39062-2.5859 12.633 4.2109 21.242 12.602 27.066 21.363 0.39062-1.332 0.77344-2.4688 2.6094-2.0391 4.168 0.97656 3.625 10.07 2.1484 10.352z"/>
  <path d="m201.64 215.12c0.23438 1.2148 0.25781 2.4961 0.15234 3.5664-2.4375-1.082-4.7148-2.2617-6.8164-3.5039 0.95313-1.1211 0.99219-2.832 1.6641-3.7539 1.7344 1.3594 3.4297 2.5977 5 3.6914z"/>
  <path d="m185.29 193.84c0.042969 0.66016 0 1.1367-0.16797 1.3203-0.37891 0.42188-2.168 0.69922-4.1055 0.80078-2.9102 0.15625-6.1602-0.078125-5.4727-0.80078l1.1602-1.2227c0.81641-0.37891 1.3438-0.875 1.6953-1.457 1.332-2.1602 0.09375-5.3594 0.50391-7.1523 0.15234-0.60547 0.46484-1.0547 1.1367-1.2539 2.7305-0.78516 5.0664 6.6133 5.25 9.7656z"/>
  <path d="m213.68 186.76h-0.054688c-0.58203 0.0625-2.4062-0.5-4.4336-1.2695-3.6172-1.3789-7.8867-3.3945-6.7656-3.5742l1.7695-0.26172c1.1406 0.15234 1.9766 0.054688 2.6094-0.19141 1.3672-0.55859 1.7539-1.8477 2.1094-3.0117 0.39063-1.332 0.77344-2.4688 2.6094-2.0391 4.1758 0.97266 3.6328 10.066 2.1562 10.348z"/>
  <path d="m202.11 200.35c-0.20703 0.81641-0.50391 1.3555-0.83984 1.4297-0.4375 0.078125-1.7695-0.30078-3.3594-0.86328-3.793-1.3203-9.1445-3.7969-7.8945-3.9688l1.7539-0.27344c1.0547 0.13281 1.832 0.066407 2.4258-0.12891 1.3945-0.46875 1.8594-1.6367 2.207-2.7539 0.46484-1.457 0.73828-2.8281 2.7266-2.3516 3.1875 0.73438 3.6172 6.2617 2.9805 8.9102z"/>
  <path d="m201.79 218.69c-0.15234 1.418-0.53125 2.4805-1.0312 2.5664-0.70703 0.14062-3.7344-0.91406-6.5-2.0664-1.4844-0.79688-3.0508-1.7266-4.6367-2.7773l1.6562-0.25781c1.9883 0.26172 3.0625-0.21094 3.6953-0.96875 2.1016 1.2383 4.3828 2.4219 6.8164 3.5039z"/>
  <path d="m201.64 215.12c-1.5664-1.0859-3.2656-2.3281-5-3.6914 0.375-0.50391 0.93359-0.75781 1.9805-0.51562 1.7305 0.40234 2.6445 2.2109 3.0195 4.207z"/>
  <path d="m235.1 79.684c-31.992 12.219-45.742 74.324 36.766 94.707 0 0 44.766-102.98-36.766-94.707zm26.559 85.207s-4.8477-3.4883-10.879-9.9336c-0.25781 1.4375-0.77344 2.9023-1.3984 4.082 1.457 1.0234 2.9727 2.0234 4.582 2.9961 12.156 7.3359-1.2773 3.8711-1.2773 3.8711s-6.1211-2.418-13.07-8.1523c-3.2422-2.1602-6.0312-4.375-4.8047-4.3125l0.14453 0.015625c-9.6328-9.8906-18.602-26.324-13.586-51.605 2.8398-14.211 4.1992-5.5664 3.1523 0.015626-1.2539 6.7266-4.3281 31.383 17.762 51.508 1.6953-1.0234 2.5195-2.9688 3.7617-3.8359-4.625-5.7188-9.418-12.887-12.992-21.379-3.7578-0.52734-7.7734-1.6133-6.5742-2.2578l1.9922-1.0859c1.2148-0.23047 2.1055-0.66016 2.8164-1.2266-2.9844-8.6055-4.6367-18.375-3.7109-29.133 1.3828-16.191 2.457-1.4453 2.457-1.4453s0.73828 9.5586 5.0391 22.578c0.46094-0.64453 1.0625-1.0703 2.0039-1.1328 3.7852-0.21875 3.5 8.7305 2.3398 12.359 4.918 11.043 12.395 23.145 23.664 33.609 9.1367 8.4766-1.4219 4.4648-1.4219 4.4648zm4.7539-4.1328c-2.7031-0.59766-8.1992-10.438-14.105-22.797-4.2227-2.4531-9.9297-6.5625-8.2656-6.4531l2.3516 0.125c1.2695 0.41406 2.2734 0.50781 3.1367 0.44141-9.6836-21.004-19.516-45.859-19.516-45.859 2.6328 3.1914 14.09 24.332 23.531 43.293 1.2109-1.5352 2.1719-3.0312 4.4805-2 3.7227 1.6289 1.8359 7.9922-0.15234 10.84 6.1367 12.801 10.34 22.816 8.5391 22.41zm2.2734-3.5898c-2.9414-43.734-27.836-70.469-27.836-70.469s-9.3242-9.918 2.2383-1.3164c30.922 23.023 29.332 73.188 29.332 73.188s-2.8516 11.883-3.7344-1.4023zm9.8594-31.371c-0.015625 0.011719-0.027344 0-0.054688-0.011719 1.9336 14.012-0.69531 25.414-0.69531 25.414s-4.7031 14.094-3.2656-1.2031c0.99219-10.457 0.39844-19.281-1.1094-26.734-3.9922-2.457-8.5078-5.8008-7.0117-5.7188l2.3633 0.14062c1.3828 0.44922 2.4922 0.53906 3.4062 0.42578-5.7188-20.066-18.352-28.531-22.547-30.945-4.2617-2.4688-9.3477-8.9414 1.6445-2.832 14.18 7.8867 21.379 19.523 24.891 30.883 1.0938-1.4102 2.0703-2.6094 4.2188-1.6562 4.8711 2.1328 0.17578 12.301-1.8398 12.238z"/>
  <path d="m250.77 154.96c-0.25781 1.4375-0.77344 2.9023-1.3984 4.082-2.6133-1.8242-4.9688-3.7227-7.0938-5.6562 1.6953-1.0234 2.5195-2.9688 3.7617-3.8359 1.6172 1.9844 3.2188 3.8047 4.7305 5.4102z"/>
  <path d="m239.43 126.84c-0.24219 0.74609-0.50391 1.2812-0.80078 1.4492-0.67188 0.38672-3.0625 0.25781-5.5703-0.11328-3.7578-0.52734-7.7734-1.6133-6.5742-2.2578l1.9922-1.0859c1.2148-0.23047 2.1055-0.66016 2.8164-1.2266 2.6328-2.1172 2.4531-6.0547 3.793-7.9922 0.46094-0.64453 1.0625-1.0703 2.0039-1.1328 3.7812-0.21875 3.4961 8.7305 2.3398 12.359z"/>
  <path d="m278.54 125.8c-0.015625 0.011719-0.027344 0-0.054688-0.011719-0.78516-0.066406-2.8438-1.1523-5.0625-2.5273-3.9922-2.457-8.5078-5.8008-7.0117-5.7188l2.3633 0.14063c1.3828 0.44922 2.4922 0.53906 3.4062 0.42578 1.9648-0.30078 3.0312-1.6641 3.9922-2.8945 1.0938-1.4102 2.0703-2.6094 4.2188-1.6562 4.8594 2.1367 0.16406 12.305-1.8516 12.242z"/>
  <path d="m257.86 138.35c-0.61719 0.88672-1.2305 1.4102-1.6875 1.4062-0.58984-0.011718-2.1172-0.77344-3.875-1.793-4.2227-2.4531-9.9297-6.5625-8.2656-6.4531l2.3516 0.125c1.2695 0.41406 2.2734 0.50781 3.1367 0.44141 1.9805-0.18359 3.0781-1.3828 4.0156-2.5664 1.2109-1.5352 2.1719-3.0312 4.4805-2 3.7188 1.6289 1.832 7.9883-0.15625 10.84z"/>
  <path d="m249.38 159.05c-0.80469 1.5664-1.7734 2.6836-2.4258 2.6484-0.98047-0.011718-4.3516-1.9492-7.3398-3.9297-1.5391-1.2695-3.1094-2.7031-4.6602-4.2969l2.2305 0.11719c2.3984 0.78516 3.9609 0.50781 5.1055-0.20313 2.125 1.9375 4.4727 3.8359 7.0898 5.6641z"/>
  <path d="m250.77 154.96c-1.5117-1.6055-3.1133-3.4336-4.7266-5.4102 0.69922-0.48047 1.5273-0.62891 2.7422-0.10156 2.0234 0.89844 2.3945 3.1836 1.9844 5.5117z"/>
  <path d="m166.72 264.36c10.23 20.867 50.547 27.406 56.934-28.609 0.007812 0.007813-68.559-25.523-56.934 28.609zm51.75-21.375s-1.8242 3.3828-5.4102 7.6992c0.92578 0.10156 1.8711 0.38672 2.6875 0.75781 0.51953-1.0195 1.043-2.082 1.5195-3.1875 3.6836-8.4336 2.5469 0.69531 2.5469 0.69531s-1.0469 4.1875-4.1172 9.0781c-1.1094 2.2578-2.2852 4.2109-2.3594 3.3867v-0.10156c-5.4805 6.8594-15.164 13.559-31.535 11.285-9.1953-1.2812-3.8398-2.5664-0.23047-2.1016 4.3516 0.54688 20.164 1.5508 31.148-14.074-0.78516-1.0859-2.0703-1.5508-2.7266-2.3594-3.2461 3.3438-7.3984 6.8477-12.48 9.6055-0.039063 2.5352-0.41406 5.2656-0.90625 4.4922l-0.85156-1.293c-0.24219-0.79688-0.58203-1.3711-0.99609-1.832-5.1953 2.3633-11.246 3.8867-18.109 3.7227-10.332-0.23438-1.1016-1.5781-1.1016-1.5781s5.9688-0.90234 13.867-4.3281c-0.44141-0.28125-0.76562-0.66016-0.85547-1.293-0.44922-2.5195 5.2266-2.7109 7.6094-2.082 6.5859-3.7695 13.652-9.2773 19.383-17.254 4.6172-6.4648 2.918 0.76172 2.918 0.76172zm-2.9883-3.0078c-0.16406 1.8438-5.9453 5.9297-13.301 10.41-1.2031 2.9219-3.3594 6.9102-3.4141 5.7891l-0.11328-1.5781c0.15625-0.86328 0.15234-1.5469 0.039062-2.1055-12.516 7.3633-27.445 15.004-27.445 15.004 1.8047-1.9023 14.27-10.457 25.504-17.574-1.0625-0.75781-2.082-1.332-1.625-2.918 0.74609-2.5586 4.9102-1.5625 6.8672-0.35156 7.6172-4.6484 13.598-7.8984 13.488-6.6758zm-2.4414-1.3594c-27.406 3.8242-42.348 21.605-42.348 21.605s-5.5234 6.6406-1.0078-1.4453c12.113-21.645 43.938-22.727 43.938-22.727 0.003906 0.003906 7.7305 1.4062-0.58203 2.5664zm-20.59-5.2539c0.011719 0.003906 0.011719 0.023437 0 0.039062 8.6875-1.8867 16.105-0.62891 16.105-0.62891s9.2617 2.5352-0.50391 2.2305c-6.6914-0.21094-12.215 0.55859-16.805 1.8945-1.2383 2.7656-2.9922 5.9258-3.0586 4.9219l-0.10156-1.5898c0.17187-0.94141 0.14453-1.668 0.011718-2.2773-12.234 4.6641-16.594 13.473-17.785 16.363-1.2305 2.9688-4.918 6.6406-1.9219-0.96875 3.8633-9.8164 10.656-15.125 17.562-17.953-0.96875-0.67188-1.8086-1.2773-1.3828-2.7422 0.96484-3.3359 7.7578-0.63672 7.8789 0.71094z"/>
  <path d="m213.06 250.69c0.92578 0.10156 1.8711 0.38672 2.6875 0.75781-0.96484 1.8242-1.9805 3.4883-3.0234 4.9844-0.78516-1.0859-2.0703-1.5508-2.7266-2.3594 1.1289-1.1484 2.1484-2.3086 3.0625-3.3828z"/>
  <path d="m196.17 259.47c0.48828 0.12891 0.84375 0.28516 0.96875 0.46484 0.30859 0.4375 0.41406 2.0391 0.375 3.7305-0.039063 2.5352-0.41406 5.2656-0.90625 4.4922l-0.85156-1.293c-0.24219-0.79688-0.58203-1.3711-0.99609-1.832-1.5391-1.668-4.0078-1.3828-5.3477-2.1914-0.44141-0.28125-0.76562-0.66016-0.85547-1.293-0.44531-2.5117 5.2266-2.7031 7.6133-2.0781z"/>
  <path d="m192.45 233.37c0.011719 0.003906 0.011719 0.023437 0 0.039062 0.011719 0.51953-0.51562 1.9531-1.2031 3.4961-1.2383 2.7656-2.9922 5.9258-3.0586 4.9219l-0.10156-1.5898c0.17187-0.94141 0.14453-1.668 0.011718-2.2773-0.35156-1.3164-1.3008-1.9648-2.1523-2.5586-0.96875-0.67188-1.8086-1.2773-1.3828-2.7422 0.97266-3.3359 7.7656-0.63672 7.8867 0.71094z"/>
  <path d="m201.99 246.65c0.60547 0.37109 0.99219 0.76172 1.0234 1.0703 0.039063 0.39062-0.32031 1.4375-0.83984 2.6641-1.2031 2.9219-3.3594 6.9102-3.4141 5.7891l-0.11328-1.5781c0.15625-0.86328 0.15234-1.5469 0.039062-2.1055-0.28125-1.3086-1.1211-1.9922-1.9414-2.5703-1.0625-0.75781-2.082-1.332-1.625-2.918 0.75391-2.5508 4.9219-1.5547 6.8711-0.35156z"/>
  <path d="m215.75 251.44c1.043 0.47656 1.8242 1.0625 1.8633 1.5195 0.054687 0.63672-0.89453 2.9805-1.9141 5.0664-0.69922 1.082-1.4688 2.1953-2.3594 3.293l-0.09375-1.4844c0.32031-1.6445 0.011718-2.6758-0.51953-3.4102 1.0469-1.4961 2.0586-3.1602 3.0234-4.9844z"/>
  <path d="m213.06 250.69c-0.91797 1.0742-1.9336 2.2344-3.0625 3.375-0.35156-0.4375-0.50391-0.98438-0.28125-1.8125 0.41406-1.3906 1.8242-1.7422 3.3438-1.5625z"/>
  <path d="m282.37 205.3c9.3477 21.281-11.027 56-57.398 24.496-0.003906 0 23.773-68.418 57.398-24.496zm-48.68 25.27s3.707 0.81641 9.2227 0.88672c-0.5 0.78516-0.87891 1.6875-1.1133 2.5273-1.1094-0.25781-2.2305-0.55469-3.375-0.91406-8.6758-2.6758-1.0859 2.3789-1.0859 2.3789s3.8477 1.9258 9.4688 2.7773c2.3984 0.61719 4.6211 0.99219 4.0312 0.41406l-0.066407-0.0625c8.6406 0.29297 19.785-2.6719 28.34-16.527 4.8047-7.7891 0.47656-4.5625-1.4453-1.5469-2.3125 3.6562-11.496 16.27-30.199 14.43-0.33984-1.3008 0.11719-2.5703-0.066406-3.5898 4.5547-0.29297 9.8164-1.1523 15.086-3.207 1.9531 1.6055 4.2344 3.1016 3.9648 2.2305l-0.4375-1.4844c-0.46094-0.69922-0.67188-1.3438-0.75781-1.9414 5.0586-2.4023 10-5.9805 14.195-11.277 6.3125-7.9688-0.51562-1.8711-0.51562-1.8711s-4.4336 3.9414-11.984 7.6758c0.078125-0.50781-0.015625-1.0039-0.42969-1.4961-1.625-1.9727-5.3438 2.2109-6.3633 4.4062-6.9883 2.543-15.59 4.3125-25.223 3.457-7.7852-0.6875-1.2461 2.7344-1.2461 2.7344zm-0.40234-4.2188c1.4961 1.0703 8.2305-0.64844 16.23-3.3047 2.9805 0.98438 7.3398 1.9492 6.5391 1.1641l-1.1367-1.1016c-0.74609-0.44141-1.2617-0.89062-1.6055-1.3438 13.418-4.6758 28.57-11.004 28.57-11.004-2.5664 0.125-16.871 3.9922-29.309 7.8789 0.10547-1.293 0.30859-2.4453-1.1797-3.1211-2.3984-1.0977-4.2656 2.6992-4.582 4.9609-8.3047 2.7422-14.512 5.1602-13.527 5.8711zm0.52734-2.7305c20.098-18.234 42.93-17.98 42.93-17.98s8.5 0.11719-0.46094-1.7148c-23.98-4.8711-44.789 18.492-44.789 18.492 0-0.003907-3.7852 6.7266 2.3203 1.2031zm8.957-18.98c0 0.011719 0.015625 0.015625 0.035157 0.023437-6.8945 5.3594-10.602 11.777-10.602 11.777s-3.9023 8.6562 2.0039 1.0625c4.0312-5.1875 8.0859-8.8711 11.988-11.484 2.8711 0.86719 6.3516 1.5781 5.6328 0.88672l-1.1367-1.1016c-0.81641-0.47656-1.3594-0.97266-1.7266-1.4766 11.207-6.2227 20.602-3.7969 23.555-2.8242 3 0.98438 8.0977 0.58203 0.47656-2.0781-9.8555-3.4492-18.137-1.7656-24.617 1.6172 0.11328-1.1758 0.18359-2.1953-1.2031-2.8164-3.1289-1.4414-5.3516 5.4492-4.4062 6.4141z"/>
  <path d="m242.91 231.45c-0.5 0.78516-0.87891 1.6875-1.1133 2.5273 1.9766 0.46875 3.8594 0.77734 5.668 0.95703-0.33984-1.3008 0.11719-2.5703-0.066406-3.5898-1.5859 0.10156-3.0977 0.13281-4.4883 0.10547z"/>
  <path d="m260.16 224.39c-0.21094 0.45312-0.32031 0.82422-0.25781 1.0547 0.12891 0.50391 1.2891 1.6289 2.582 2.6992 1.9531 1.6055 4.2344 3.1016 3.9648 2.2305l-0.4375-1.4844c-0.46094-0.69922-0.67188-1.3438-0.75781-1.9414-0.29297-2.2578 1.4727-3.9297 1.6953-5.4727 0.078125-0.50781-0.015625-1.0039-0.42969-1.4961-1.6172-1.9609-5.3398 2.2148-6.3594 4.4102z"/>
  <path d="m242.77 204.64c0 0.011719 0.015625 0.015625 0.035157 0.023437 0.375 0.35156 1.7852 0.875 3.3984 1.3555 2.8711 0.86719 6.3516 1.5781 5.6328 0.88672l-1.1367-1.1016c-0.81641-0.47656-1.3594-0.97266-1.7266-1.4766-0.77344-1.1133-0.67188-2.25-0.58984-3.2812 0.11328-1.1758 0.18359-2.1953-1.2031-2.8164-3.1328-1.4453-5.3555 5.4453-4.4102 6.4102z"/>
  <path d="m246.81 220.49c-0.10156 0.69922-0.042969 1.2422 0.16797 1.4688 0.26953 0.28125 1.293 0.69922 2.5352 1.0977 2.9805 0.98437 7.3398 1.9492 6.5391 1.1641l-1.1367-1.1016c-0.74609-0.44141-1.2617-0.89063-1.6055-1.3438-0.81641-1.0547-0.81641-2.1406-0.73828-3.1289 0.10547-1.293 0.30859-2.4453-1.1797-3.1211-2.3984-1.0938-4.2695 2.7031-4.582 4.9648z"/>
  <path d="m241.8 233.98c-0.30078 1.1133-0.35156 2.0898-0.027344 2.4023 0.44922 0.46484 2.8242 1.2617 5.0391 1.8477 1.2422 0.17969 2.5742 0.3125 3.9648 0.35156l-1.0625-1.0312c-1.4336-0.83594-2.0312-1.7344-2.2461-2.6133-1.8047-0.18359-3.6914-0.48828-5.668-0.95703z"/>
  <path d="m242.91 231.45c1.3906 0.035156 2.9023 0 4.4844-0.10156-0.11328-0.56641-0.44141-1.0195-1.2109-1.3945-1.3086-0.59766-2.4531 0.24219-3.2734 1.4961z"/>
  <path d="m95.004 337.05c-0.65625 25.055 45.645 52.266 89.809 2.6953 0 0-69.441-59.883-89.809-2.6953zm78.637 6.8164s-4.4688 2.2383-11.75 4.4453c1.082 0.57812 2.1094 1.3398 2.8711 2.1055 1.3281-0.67187 2.6484-1.4102 3.9766-2.2109 10.059-6.0352 2.75 1.9766 2.75 1.9766s-4.0195 3.4258-11.039 6.4297c-2.8398 1.5469-5.582 2.7891-5.1367 1.9805l0.074219-0.09375c-11.305 3.6133-27.77 4.8906-46.801-5.8008-10.695-6.0078-3.1523-4.4336 1.0625-2.1094 5.0898 2.793 24.266 12 48.105 2.9688-0.27344-1.4375-1.5859-2.5547-1.8828-3.6406-6.2344 1.457-13.699 2.5938-21.836 2.5352-1.6953 2.375-3.9141 4.7617-4.0391 3.7734l-0.23438-1.6641c0.22266-0.87891 0.15625-1.6055-0.074219-2.2383-8.0352-0.48828-16.582-2.1992-25.082-5.9375-12.801-5.6055-0.36328-2.0781-0.36328-2.0781s8.0742 2.2734 20.164 3.1523c-0.37109-0.5-0.52734-1.0312-0.25391-1.6758 1.0703-2.6133 8.3086 0.16797 10.91 1.9922 10.684-0.11719 23.082-1.6406 35.402-6.1953 9.9727-3.6641 3.1758 2.2852 3.1758 2.2852zm-1.8047-4.4023c-1.3828 1.6523-11.289 2.4922-23.375 2.8945-3.4062 2.1289-8.6641 4.7695-8.0312 3.6719l0.89453-1.5234c0.74609-0.75 1.1758-1.4062 1.3984-1.9805-20.434 0.42578-44.066-0.15234-44.066-0.15234 3.4883-0.84375 24.617-2.4453 43.305-3.293-0.85547-1.2695-1.7578-2.3398-0.15625-3.5938 2.582-2.0312 7.1562 1.082 8.8359 3.2461 12.516-0.42188 22.129-0.36719 21.195 0.73047zm-2.1836-2.5469c-36.797-10.691-66.992-1.6875-66.992-1.6875s-11.219 3.375-0.33203-1.8984c29.141-14.113 69.715 1.4688 69.715 1.4688s8.7852 5.3359-2.3906 2.1172zm-22.418-15.715c0 0.011719 0 0.015625-0.027344 0.039062 12.113 2.75 20.586 7.8125 20.586 7.8125s9.9961 7.2422-2.0703 1.8477c-8.2383-3.6836-15.656-5.8398-22.27-7-3.3438 1.9805-7.5781 4.0547-7.0156 3.0625l0.90625-1.5469c0.82812-0.80469 1.2695-1.5195 1.4688-2.1523-18.328-1.9766-29.469 4.0703-32.828 6.1836-3.457 2.1562-10.445 3.7031-1.793-1.9258 11.199-7.2422 23.121-8.7266 33.609-7.7969-0.80469-1.1406-1.457-2.1562 0.015625-3.3203 3.375-2.6406 10.152 3.4531 9.418 4.7969z"/>
  <path d="m161.89 348.31c1.082 0.57812 2.1094 1.3398 2.8711 2.1055-2.3672 1.2305-4.7109 2.2773-7 3.1406-0.27344-1.4375-1.5859-2.5547-1.8828-3.6406 2.1484-0.50391 4.1797-1.0664 6.0117-1.6055z"/>
  <path d="m135.07 347.78c0.51953 0.37891 0.86719 0.71094 0.91797 0.96484 0.089844 0.57031-0.80469 2.1289-1.9414 3.7031-1.6953 2.375-3.9141 4.7617-4.0391 3.7734l-0.23437-1.6641c0.22266-0.87891 0.15625-1.6055-0.074219-2.2383-0.85547-2.3867-4.1289-3.3945-5.2812-4.8555-0.37109-0.5-0.52734-1.0312-0.25391-1.6758 1.0742-2.6172 8.3164 0.16797 10.906 1.9922z"/>
  <path d="m147.23 321.2c0 0.011719 0 0.015625-0.027344 0.039062-0.30859 0.49219-1.8945 1.5664-3.7578 2.6602-3.3438 1.9805-7.5781 4.0547-7.0156 3.0625l0.90625-1.5469c0.82812-0.80469 1.2695-1.5195 1.4688-2.1523 0.42969-1.418-0.33594-2.5352-1.0078-3.5391-0.80469-1.1406-1.457-2.1562 0.015625-3.3203 3.375-2.6406 10.152 3.4531 9.418 4.7969z"/>
  <path d="m150.63 338.73c0.51953 0.66016 0.74609 1.2305 0.59766 1.5469-0.21875 0.375-1.332 1.1875-2.7773 2.0703-3.4062 2.1289-8.6641 4.7695-8.0312 3.6719l0.89453-1.5234c0.74609-0.75 1.1758-1.4062 1.3984-1.9805 0.50391-1.3828-0.11328-2.4648-0.76172-3.4453-0.85547-1.2695-1.7578-2.3398-0.15625-3.5938 2.5898-2.0273 7.1641 1.0898 8.8359 3.2539z"/>
  <path d="m164.76 350.41c1.0078 1.0117 1.6055 1.9727 1.3672 2.4062-0.33984 0.64453-3.0391 2.3516-5.6719 3.793-1.5508 0.67188-3.2461 1.3047-5.0586 1.8867l0.83984-1.4609c1.4375-1.3789 1.7344-2.5195 1.5273-3.4844 2.2891-0.85938 4.6289-1.9102 6.9961-3.1406z"/>
  <path d="m161.89 348.31c-1.832 0.53906-3.8594 1.0977-6.0078 1.6016-0.16406-0.60938 0-1.2148 0.82422-1.875 1.3906-1.0859 3.3906-0.69141 5.1836 0.27344z"/>
  <path d="m167.84 417.56c22.676 5.0352 52.965-22.371 13.215-62.344 0 0.003906-62.766 37.621-13.215 62.344zm15.617-53.766s1.4961 3.5352 2.6133 9.0312c0.66016-0.64844 1.4961-1.2305 2.2773-1.625-0.46484-1.0547-0.96875-2.1094-1.5273-3.1875-4.2969-8.1406 2.1289-1.5625 2.1289-1.5625s2.6211 3.4375 4.5195 8.8984c1.0625 2.2734 1.8633 4.418 1.1758 3.9609l-0.074219-0.074219c1.9219 8.5625 1.1133 20.316-10.879 31.68-6.7461 6.3906-4.4062 1.3945-1.793-1.1367 3.1484-3.0625 13.809-14.785 8.4609-33.102-1.332-0.085937-2.5078 0.63672-3.5352 0.64844 0.57812 4.6094 0.71875 10.059-0.29688 15.746 1.9375 1.6016 3.8516 3.5938 2.9297 3.5l-1.5273-0.14062c-0.77344-0.32031-1.4336-0.39063-2.0547-0.36328-1.3984 5.5312-3.9805 11.211-8.3984 16.469-6.6367 7.9297-1.9219-0.12891-1.9219-0.12891s3.0234-5.2305 5.2695-13.535c-0.49219 0.17188-0.99609 0.19531-1.5586-0.11719-2.2383-1.2227 1.1602-5.7891 3.1367-7.2578 1.1758-7.5 1.2656-16.453-1.3828-25.906-2.1523-7.6445 2.4375-1.7969 2.4375-1.7969zm-4.2266 0.45312c1.332 1.2695 0.91797 8.3477-0.16797 16.871 1.5234 2.7891 3.293 6.957 2.3789 6.3047l-1.293-0.90234c-0.57031-0.66016-1.1133-1.0742-1.6289-1.3594-2.0625 14.379-5.4219 30.812-5.4219 30.812-0.35156-2.5938 0.74609-17.668 2.1992-30.891-1.25 0.35938-2.3398 0.78906-3.2812-0.56641-1.5273-2.1602 1.8359-4.8008 4.0078-5.5664 1.1289-8.8438 2.3203-15.559 3.207-14.703zm-2.582 1.0586c-14.117 23.777-9.5586 46.562-9.5586 46.562s1.7344 8.4727-1.7695-0.125c-9.3242-22.98 9.6875-48.508 9.6875-48.508 0 0.003906 5.9336-5.1484 1.6406 2.0703zm-16.961 12.801c0.003906 0.003906 0.015625 0.015625 0.039063 0.035156 3.9531-7.9805 9.5547-12.977 9.5547-12.977s7.7852-5.6562 1.4375 1.7852c-4.3516 5.0977-7.1953 9.8945-9.0156 14.312 1.3828 2.6875 2.75 6.0312 1.9219 5.4609l-1.293-0.91797c-0.62109-0.71875-1.2227-1.1602-1.7812-1.4219-3.9805 12.473 0.16797 21.371 1.6914 24.121 1.5391 2.793 2.1055 7.9805-1.9727 0.88672-5.2461-9.1562-5.1523-17.77-3.0508-24.922-1.1367 0.34766-2.1328 0.60938-3-0.63281-2.0195-2.8516 4.3359-6.4688 5.4688-5.7305z"/>
  <path d="m186.08 372.82c0.66016-0.64844 1.4961-1.2305 2.2773-1.625 0.82812 1.8633 1.4961 3.7031 2.0039 5.4766-1.332-0.085937-2.5078 0.63672-3.5352 0.64844-0.21094-1.5977-0.46875-3.125-0.74609-4.5z"/>
  <path d="m182.4 391.5c0.39844-0.30078 0.74609-0.49219 0.96875-0.46875 0.53125 0.035156 1.8477 0.95312 3.1523 2.0508 1.9375 1.6016 3.8516 3.5938 2.9297 3.5l-1.5273-0.14062c-0.77344-0.32031-1.4336-0.39062-2.0547-0.36328-2.2695 0.16406-3.5859 2.2695-5.0469 2.8047-0.49219 0.17188-0.99609 0.19531-1.5586-0.11719-2.2383-1.2305 1.1602-5.7969 3.1367-7.2656z"/>
  <path d="m159.69 378.11c0.003906 0.003906 0.015625 0.015625 0.039063 0.035156 0.41016 0.3125 1.1914 1.6133 1.9766 3.125 1.3828 2.6875 2.75 6.0312 1.9219 5.4609l-1.293-0.91797c-0.62109-0.71875-1.2227-1.1602-1.7812-1.4219-1.2422-0.55469-2.3359-0.22266-3.332 0.085937-1.1367 0.34766-2.1328 0.60938-3-0.63281-2.0195-2.8555 4.3359-6.4727 5.4688-5.7344z"/>
  <path d="m176.04 378.95c0.65625-0.24219 1.2148-0.3125 1.457-0.12891 0.33984 0.21094 0.94141 1.1367 1.5781 2.2969 1.5234 2.7891 3.293 6.957 2.3789 6.3047l-1.293-0.90234c-0.57031-0.66016-1.1133-1.0742-1.6289-1.3594-1.1914-0.58984-2.2578-0.34766-3.2188-0.078124-1.25 0.35937-2.3398 0.78906-3.2812-0.56641-1.5352-2.1641 1.8359-4.8008 4.0078-5.5664z"/>
  <path d="m188.35 371.2c1.0234-0.51953 1.9805-0.77734 2.3477-0.51953 0.54297 0.35156 1.7734 2.5742 2.7656 4.6641 0.41016 1.2148 0.79688 2.5156 1.1016 3.8867l-1.2148-0.83984c-1.0938-1.2695-2.0898-1.6875-2.9961-1.7188-0.51172-1.7734-1.1719-3.6094-2.0039-5.4727z"/>
  <path d="m186.08 372.82c0.28125 1.3711 0.54297 2.9023 0.74609 4.5039-0.57812 0-1.0938-0.22266-1.6055-0.92969-0.82031-1.1797-0.22266-2.5039 0.85938-3.5742z"/>
  <path d="m204.62 279.13c22.457 5.9688 36.859 43.574-16.711 60.121 0 0-38.586-61.281 16.711-60.121zm-10.656 53.777s2.9453-2.3672 6.457-6.6406c0.28125 0.875 0.74609 1.7461 1.2656 2.4453-0.89453 0.70703-1.8242 1.3945-2.8164 2.0664-7.5312 5.1133 1.1758 2.3242 1.1758 2.3242s3.8984-1.7812 8.082-5.6445c1.9805-1.4961 3.6641-2.9961 2.8438-2.8945l-0.085937 0.023438c5.6172-6.5742 10.266-17.137 4.793-32.473-3.0859-8.625-3.2812-3.2188-2.1289 0.16797 1.4062 4.082 5.5234 19.125-7.5938 32.609-1.2148-0.56641-1.9219-1.7148-2.8398-2.1953 2.6328-3.7305 5.2344-8.3906 6.9219-13.793 2.4648-0.51953 5.0664-1.3711 4.2109-1.7188l-1.4297-0.57031c-0.82812-0.085938-1.4688-0.32031-1.9883-0.62109 1.2812-5.4531 1.5781-11.547 0.050781-18.133-2.2773-9.9023-1.7734-0.77344-1.7734-0.77344s0.32031 5.9375-1.4727 14.164c-0.35156-0.37109-0.8125-0.61719-1.4375-0.59375-2.5547 0.039063-1.6172 5.5508-0.53906 7.7266-2.3789 7.0352-6.3711 14.863-13.047 21.852-5.4023 5.6562 1.3516 2.6719 1.3516 2.6719zm-3.5469-2.3125c1.7695-0.50391 4.6328-6.8281 7.5586-14.734 2.6211-1.707 6.0938-4.5234 4.9844-4.375l-1.5586 0.19531c-0.81641 0.30859-1.4844 0.42578-2.0664 0.41406 4.7422-13.418 9.2461-29.191 9.2461-29.191-1.5 2.082-7.4102 15.668-12.156 27.805-0.93359-0.88672-1.6953-1.7578-3.1602-1.0117-2.3594 1.1797-0.54688 5.0195 1.0195 6.6641-3.0508 8.1953-5.043 14.574-3.8672 14.234zm-1.8086-2.1133c-1.6953-27.07 12.758-44.766 12.758-44.766s5.4023-6.5508-1.6133-0.71094c-18.781 15.691-13.539 46.523-13.539 46.523s2.8984 7.1914 2.3945-1.0469zm-9.2383-18.844c0.011719 0 0.039062 0 0.050781-0.015625-0.125 8.7344 2.582 15.641 2.582 15.641s4.3242 8.4492 2.082-0.90625c-1.5352-6.4062-1.875-11.859-1.4883-16.527 2.4648-1.707 5.207-3.9805 4.2188-3.8633l-1.5781 0.20703c-0.88672 0.33984-1.6133 0.44922-2.2305 0.41016 2.1445-12.633 9.8906-18.457 12.504-20.145 2.6367-1.7305 5.5039-5.9648-1.3438-1.668-8.8359 5.5547-12.691 13.055-14.09 20.238-0.85547-0.82812-1.6055-1.5195-2.9688-0.82812-3.0781 1.543 0.92578 7.5859 2.2617 7.457z"/>
  <path d="m200.43 326.27c0.28125 0.875 0.74609 1.7461 1.2656 2.4453 1.5977-1.2539 3.0234-2.543 4.2773-3.8203-1.2148-0.56641-1.9219-1.7148-2.8398-2.1953-0.91797 1.3008-1.8281 2.5-2.7031 3.5703z"/>
  <path d="m205.67 308.39c0.23047 0.44141 0.44922 0.76172 0.66016 0.85156 0.47656 0.20703 2.0664 0.011718 3.7227-0.33594 2.4648-0.51953 5.0664-1.3711 4.2109-1.7188l-1.4297-0.57031c-0.82813-0.085938-1.4688-0.32031-1.9883-0.62109-1.9492-1.1758-2.1562-3.6133-3.1992-4.7422-0.35156-0.37109-0.8125-0.61719-1.4375-0.59375-2.5547 0.042969-1.6211 5.5586-0.53906 7.7305z"/>
  <path d="m179.38 309.64c0.011719 0 0.039062 0 0.050781-0.015625 0.50781-0.078125 1.7969-0.83984 3.1797-1.793 2.4648-1.707 5.207-3.9805 4.2188-3.8633l-1.5781 0.20703c-0.88672 0.33984-1.6133 0.44922-2.2305 0.41016-1.3594-0.074219-2.1836-0.86328-2.9297-1.5742-0.85547-0.82812-1.6055-1.5195-2.9688-0.82812-3.082 1.543 0.92187 7.5859 2.2578 7.457z"/>
  <path d="m194.29 316.37c0.47656 0.53125 0.93359 0.81641 1.25 0.79687 0.39062-0.035156 1.3438-0.58203 2.4453-1.293 2.6211-1.707 6.0938-4.5234 4.9844-4.375l-1.5586 0.19531c-0.81641 0.30859-1.4844 0.42578-2.0664 0.41406-1.332-0.015625-2.168-0.70703-2.9102-1.3906-0.93359-0.88672-1.6953-1.7578-3.1602-1.0117-2.3594 1.1797-0.55078 5.0117 1.0156 6.6641z"/>
  <path d="m201.7 328.71c0.67188 0.92969 1.4102 1.5625 1.8477 1.5273 0.65625-0.074219 2.7422-1.4219 4.5938-2.7812 0.92578-0.86328 1.8477-1.832 2.7617-2.8711l-1.4844 0.18359c-1.5391 0.59375-2.6055 0.49219-3.4375 0.11719-1.2617 1.2812-2.6836 2.5742-4.2812 3.8242z"/>
  <path d="m200.43 326.27c0.875-1.0625 1.7852-2.2617 2.7031-3.5664-0.50391-0.26172-1.0625-0.30078-1.8477 0.078125-1.2812 0.63281-1.3438 2.0664-0.85547 3.4883z"/>
  <path d="m409.81 3.2812c-31.578-2.5078-67.547 53.777-6.6094 112.57 0 0 78.008-83.148 6.6094-112.57zm-11.414 98.254s-2.6602-5.75-5.168-15.043c-0.78516 1.3281-1.7969 2.5586-2.7773 3.4727 0.8125 1.7031 1.6914 3.4141 2.6602 5.1367 7.2539 13.035-2.6055 3.3164-2.6055 3.3164s-4.1719-5.2812-7.7188-14.285c-1.8438-3.6797-3.3047-7.1953-2.3008-6.5742l0.11328 0.089844c-4.1484-14.438-5.1797-35.18 8.9805-58.363 7.9688-13.02 5.7109-3.6641 2.6367 1.4727-3.6953 6.2148-15.992 29.668-5.4609 60.211 1.8125-0.25781 3.2656-1.8359 4.6523-2.1406-1.625-7.9062-2.8008-17.359-2.4297-27.578-2.9336-2.2773-5.8594-5.2305-4.6094-5.3242l2.0898-0.17188c1.1133 0.33203 2.0312 0.29688 2.8516 0.054688 0.88672-10.047 3.3711-20.68 8.3906-31.109 7.5195-15.68 2.6133-0.30859 2.6133-0.30859s-3.1484 9.9805-4.6875 25.121c0.63281-0.44141 1.3047-0.59766 2.1055-0.22266 3.2695 1.5234-0.50391 10.426-2.9102 13.551-0.23437 13.43 1.2539 29.094 6.5508 44.879 4.293 12.762-2.9766 3.8164-2.9766 3.8164zm5.625-1.9453c-2.0273-1.8594-2.7383-14.34-2.8164-29.551-2.5664-4.418-5.7109-11.207-4.3516-10.328l1.9102 1.2109c0.89453 1.0039 1.7031 1.5781 2.4453 1.8945 0.18359-25.672 1.7539-55.312 1.7539-55.312 0.95312 4.4414 2.1953 31.074 2.6133 54.578 1.6172-0.98047 3-2.043 4.5352 0.050781 2.4688 3.3867-1.625 8.9219-4.4062 10.875 0.074219 15.762-0.33594 27.82-1.6836 26.582zm3.3008-2.5859c14.785-45.477 4.5078-83.988 4.5078-83.988s-3.8633-14.324 2.4023-0.29688c16.766 37.559-4.3281 87.445-4.3281 87.445 0-0.003906-7.0625 10.664-2.582-3.1602zm20.625-27.066c-0.027343-0.003906-0.039062-0.015625-0.066406-0.042969-3.9102 15.023-10.586 25.324-10.586 25.324s-9.4883 12.035-2.2617-2.7344c4.9453-10.09 7.9414-19.27 9.6094-27.492-2.3516-4.3242-4.8086-9.793-3.5859-9.0039l1.9023 1.2266c0.98047 1.1016 1.8633 1.6953 2.6719 2 3.1484-22.887-4.082-37.277-6.625-41.652-2.5977-4.4805-4.2969-13.355 2.4805-2.1016 8.7461 14.52 10.176 29.602 8.6289 42.707 1.4844-0.92578 2.7617-1.6875 4.1875 0.26172 3.2266 4.4062-4.7148 12.5-6.3555 11.508z"/>
  <path d="m393.23 86.492c-0.78516 1.3281-1.7969 2.5586-2.7773 3.4727-1.4688-3.0586-2.6836-6.0742-3.6914-8.9922 1.8125-0.25781 3.2656-1.8359 4.6523-2.1406 0.55469 2.7422 1.1875 5.332 1.8164 7.6602z"/>
  <path d="m394.82 52.852c-0.48047 0.63672-0.92578 1.0586-1.2305 1.0938-0.71875 0.085938-2.6562-1.1641-4.6094-2.6875-2.9336-2.2773-5.8594-5.2305-4.6094-5.3242l2.0898-0.17188c1.1133 0.33203 2.0312 0.29688 2.8516 0.054687 3.0391-0.91797 4.4297-4.957 6.3164-6.2891 0.63281-0.44141 1.3047-0.59766 2.1055-0.22266 3.2617 1.5195-0.50781 10.418-2.9141 13.547z"/>
  <path d="m427.95 69.938c-0.027343-0.003906-0.039062-0.015625-0.066406-0.042969-0.60547-0.42578-1.9102-2.4883-3.2383-4.8984-2.3516-4.3242-4.8086-9.793-3.5859-9.0039l1.9023 1.2266c0.98047 1.1016 1.8633 1.6953 2.6719 2 1.7695 0.62891 3.1992-0.26172 4.4922-1.0469 1.4844-0.92578 2.7617-1.6875 4.1875 0.26172 3.2188 4.4023-4.7227 12.496-6.3633 11.504z"/>
  <path d="m405.7 73.012c-0.85156 0.60938-1.5781 0.86328-1.9727 0.64453-0.46875-0.29297-1.4609-1.7539-2.5273-3.6172-2.5664-4.418-5.7109-11.207-4.3516-10.328l1.9102 1.2109c0.89453 1.0039 1.7031 1.5781 2.4453 1.8945 1.7188 0.73438 3.1211 0.027344 4.3672-0.73438 1.6172-0.98047 3-2.043 4.5352 0.050781 2.4727 3.3945-1.625 8.9219-4.4062 10.879z"/>
  <path d="m390.45 89.965c-1.293 1.1992-2.5352 1.8828-3.0781 1.5391-0.79688-0.46484-2.8516-3.9805-4.582-7.3711-0.77734-1.9883-1.5234-4.1758-2.1953-6.4844l1.8086 1.1602c1.6914 1.8984 3.1094 2.3398 4.3516 2.168 1.0117 2.9102 2.2266 5.9297 3.6953 8.9883z"/>
  <path d="m393.23 86.492c-0.62109-2.3281-1.2617-4.918-1.8125-7.6602 0.77344-0.15625 1.5195 0.078125 2.3281 1.1719 1.3203 1.8359 0.74609 4.3086-0.51563 6.4883z"/>
  <path d="m319.43 103.49c-7.168 28.141 26.32 68.023 78.152 20.805 0 0-45.195-81.34-78.152-20.805zm67.266 23.246s-4.5312 1.6406-11.492 2.6836c0.80078 0.86719 1.4961 1.9414 1.9648 2.957 1.3438-0.51562 2.7031-1.0742 4.0703-1.7266 10.426-4.8203 1.8945 2.7891 1.8945 2.7891s-4.4297 3.0586-11.375 5.0781c-2.9102 1.1875-5.6328 2.0391-5.0195 1.2148l0.078125-0.10156c-10.879 1.8359-25.66 0.035156-39.559-15.793-7.8164-8.9023-1.6172-5.6406 1.4844-2.1797 3.7422 4.1602 18.148 18.336 41.453 12.859 0.15234-1.6758-0.71875-3.1914-0.6875-4.4844-5.8398 0.42188-12.711 0.23438-19.84-1.4453-2.1016 2.3398-4.6914 4.6016-4.5352 3.457l0.24219-1.9141c0.41406-0.95703 0.54688-1.7812 0.52734-2.5586-6.9453-2.1289-13.988-5.7617-20.484-11.66-9.7617-8.8633 0.24219-2.4141 0.24219-2.4141s6.4844 4.1602 16.891 7.5391c-0.20703-0.61719-0.20703-1.2539 0.20703-1.9336 1.625-2.7148 7.2422 1.8594 9.0273 4.4336 9.4062 1.9727 20.699 2.7109 32.73 0.015625 9.707-2.1914 2.1797 3.1836 2.1797 3.1836zm-0.42578-5.332c-1.6523 1.5977-10.578 0.58984-21.285-1.3594-3.5742 1.7344-8.875 3.6719-8.0312 2.5703l1.1758-1.5664c0.85547-0.68359 1.4102-1.3164 1.7656-1.9531-18.055-3.5547-38.668-8.875-38.668-8.875 3.293-0.28125 22.277 2.1211 38.887 4.8477-0.40234-1.6016-0.90625-3 0.81641-4.0977 2.8008-1.7734 6.0039 2.6445 6.8984 5.4141 11.125 2.0078 19.551 3.9609 18.441 5.0195zm-1.2422-3.3164c-29.508-19.344-58.391-15.148-58.391-15.148s-10.742 1.6016 0.20312-2.207c29.328-10.168 60.848 15.434 60.848 15.434 0 0.003907 6.293 7.7852-2.6602 1.9219zm-15.547-22.176c0 0.011719-0.011719 0.035156-0.039063 0.039063 9.9102 5.5156 16.023 12.891 16.023 12.891s6.8594 10.152-2.3086 1.6797c-6.2617-5.7969-12.227-9.6992-17.707-12.293-3.4492 1.5508-7.7188 3.0586-6.9727 2.0547l1.2109-1.5742c0.92969-0.73438 1.5117-1.4453 1.8633-2.1328-15.586-5.8516-26.969-1.2383-30.477 0.48828-3.6055 1.7461-10.152 2.1094-1.0625-2.5195 11.738-5.9688 22.602-5.2852 31.555-2.1562-0.39844-1.457-0.70703-2.7109 0.91406-3.7344 3.6406-2.3242 7.9766 5.9023 7 7.2578z"/>
  <path d="m375.21 129.41c0.80078 0.86719 1.4961 1.9414 1.9648 2.957-2.4062 0.91406-4.7305 1.6367-6.9844 2.1523 0.15234-1.6758-0.71875-3.1914-0.6875-4.4844 2.0195-0.13672 3.9531-0.36719 5.707-0.625z"/>
  <path d="m351.79 123.54c0.35156 0.52734 0.58203 0.97266 0.54688 1.2617-0.0625 0.66016-1.2773 2.2461-2.6836 3.8086-2.1016 2.3398-4.6914 4.6016-4.5352 3.457l0.24219-1.9141c0.41406-0.95703 0.54688-1.7812 0.52734-2.5586-0.125-2.8516-2.7383-4.6523-3.3555-6.5312-0.20703-0.61719-0.20703-1.2539 0.20703-1.9336 1.6484-2.7383 7.2656 1.8359 9.0508 4.4102z"/>
  <path d="m369.48 95.91c0 0.011719-0.011719 0.035156-0.039063 0.039063-0.41016 0.50391-2.0703 1.4062-3.9922 2.2773-3.4492 1.5508-7.7188 3.0586-6.9727 2.0547l1.2109-1.5742c0.92969-0.73438 1.5117-1.4453 1.8633-2.1328 0.72656-1.5195 0.34766-2.9219 0.015625-4.1875-0.39844-1.457-0.70703-2.7109 0.91406-3.7344 3.6406-2.3242 7.9766 5.9023 7 7.2578z"/>
  <path d="m367.84 116.39c0.29297 0.85547 0.33594 1.5352 0.11328 1.8555-0.28125 0.39844-1.4727 1.0859-2.9609 1.8086-3.5742 1.7344-8.875 3.6719-8.0312 2.5703l1.1758-1.5664c0.85547-0.68359 1.4102-1.3164 1.7656-1.9531 0.80469-1.4609 0.53906-2.8125 0.21875-4.0312-0.40234-1.6016-0.90625-3 0.81641-4.0977 2.8008-1.7773 6.0039 2.6406 6.9023 5.4141z"/>
  <path d="m377.17 132.38c0.62891 1.3203 0.89453 2.5273 0.55859 2.9805-0.45312 0.66016-3.293 2.0625-5.9688 3.1641-1.5469 0.42969-3.1992 0.83594-4.9453 1.1211l1.1094-1.4727c1.6289-1.2812 2.1953-2.5039 2.2617-3.6406 2.25-0.52344 4.5742-1.2461 6.9844-2.1523z"/>
  <path d="m375.21 129.41c-1.7461 0.25781-3.6836 0.48047-5.7109 0.62109 0.027344-0.72266 0.32422-1.3555 1.2305-1.9492 1.5156-0.95313 3.1562-0.097657 4.4805 1.3281z"/>
  <path d="m478.95 144.83c-8.3438 27.789-56.297 43.328-75.254-25.047 0.003906-0.003906 78.695-44.316 75.254 25.047zm-67.473-17.023s2.8945 3.8711 8.1367 8.5625c-1.0977 0.29297-2.2188 0.82422-3.125 1.4336-0.85156-1.1719-1.6914-2.3984-2.5156-3.6797-6.1641-9.8008-2.9609 1.3281-2.9609 1.3281s2.1094 5.0195 6.8555 10.516c1.8086 2.5977 3.6328 4.8086 3.543 3.7695l-0.023437-0.11328c8.0625 7.5 21.23 14.051 40.758 8.2031 10.988-3.2891 4.1875-3.8906-0.12891-2.6602-5.207 1.4844-24.32 5.6406-40.848-11.738 0.74609-1.5 2.2188-2.3125 2.8555-3.4258 4.6367 3.5508 10.398 7.1406 17.16 9.6211 0.57031 3.1367 1.5352 6.4609 2.0039 5.4141l0.76562-1.7656c0.14062-1.0312 0.45312-1.8086 0.85547-2.4453 6.8281 1.9727 14.516 2.75 22.875 1.2695 12.562-2.1797 1.0312-2.168 1.0312-2.168s-7.4805 0-17.812-2.8164c0.5-0.41016 0.80469-0.95703 0.81641-1.7539 0.039063-3.2188-6.9375-2.4062-9.7266-1.1992-8.8047-3.4609-18.512-9.0039-27.109-17.852-6.9141-7.1797-3.4062 1.5-3.4062 1.5zm3.0469-4.2852c0.57812 2.2578 8.457 6.2617 18.316 10.484 2.0547 3.4062 5.4766 7.9531 5.3359 6.5508l-0.17969-1.9766c-0.375-1.0352-0.48828-1.8945-0.46875-2.6094 16.754 6.8438 36.508 13.578 36.508 13.578-2.5742-2.0273-19.5-10.367-34.652-17.141 1.1484-1.125 2.2891-2.0234 1.3945-3.9023-1.4062-3.0391-6.3047-1.043-8.457 0.81641-10.203-4.3672-18.172-7.3008-17.797-5.8008zm2.7305-2.1289c34.223-0.29688 56.012 19.039 56.012 19.039s8.0938 7.2227 0.94531-1.9883c-19.105-24.641-58.191-20.133-58.191-20.133 0 0.003906-9.168 3.1562 1.2344 3.082zm24.09-10.324c0 0.003906 0 0.023438 0.023438 0.050782-11.004-0.73438-19.809 2.1953-19.809 2.1953s-10.812 4.8555 1.0703 2.6758c8.1094-1.4961 15.023-1.5586 20.906-0.75781 2.0547 3.207 4.8281 6.8164 4.7109 5.5625l-0.18359-1.9922c-0.41016-1.1367-0.52734-2.0547-0.46484-2.8281 15.871 3.5352 22.938 13.68 24.977 17.051 2.0781 3.4453 7.3242 7.3242 2.1562-1.5586-6.6797-11.48-16.016-16.824-25.027-19.066 1.0586-1.0117 1.9727-1.9141 1.1367-3.6641-1.832-3.9688-9.6094 0.64062-9.4961 2.332z"/>
  <path d="m419.62 136.37c-1.0977 0.29297-2.2188 0.82422-3.125 1.4336 1.5195 2.0898 3.0977 3.9609 4.6758 5.6289 0.74609-1.5 2.2188-2.3125 2.8555-3.4258-1.5938-1.2266-3.0859-2.4727-4.4062-3.6367z"/>
  <path d="m442 144.16c-0.57031 0.24609-0.97266 0.50781-1.0977 0.77734-0.28516 0.58984-0.10156 2.5938 0.29297 4.6875 0.57031 3.1367 1.5352 6.4609 2.0039 5.4141l0.76562-1.7656c0.14062-1.0312 0.45312-1.8086 0.85547-2.4453 1.5625-2.3633 4.6406-2.4648 6.0938-3.7109 0.5-0.41016 0.80469-0.95703 0.81641-1.7539 0.035156-3.2266-6.9414-2.4141-9.7305-1.2031z"/>
  <path d="m441.35 111.07c0 0.003906 0 0.023438 0.023438 0.050782 0.089844 0.66016 1.0078 2.3242 2.1719 4.1172 2.0547 3.207 4.8281 6.8164 4.7109 5.5625l-0.18359-1.9922c-0.41016-1.1367-0.52734-2.0547-0.46484-2.8281 0.16406-1.7031 1.1797-2.6875 2.1055-3.5742 1.0586-1.0117 1.9727-1.9141 1.1367-3.6641-1.8359-3.9727-9.6133 0.63672-9.5 2.3281z"/>
  <path d="m432.33 129.32c-0.66016 0.57813-1.0547 1.1328-1.0234 1.5117 0.035156 0.5 0.66797 1.7461 1.5391 3.168 2.0547 3.4062 5.4766 7.9531 5.3359 6.5508l-0.17969-1.9766c-0.375-1.0352-0.48828-1.8945-0.46875-2.6094 0.078125-1.6797 0.96875-2.6836 1.8555-3.5625 1.1484-1.125 2.2891-2.0234 1.3945-3.9023-1.4023-3.0391-6.3047-1.0391-8.4531 0.82031z"/>
  <path d="m416.5 137.8c-1.1875 0.78516-2.0391 1.6641-1.9727 2.2305 0.042968 0.80469 1.6797 3.5352 3.3438 5.9297 1.0469 1.2148 2.2188 2.4531 3.5234 3.6562l-0.18359-1.8633c-0.6875-1.9766-0.54297-3.3164-0.035157-4.3281-1.5781-1.6719-3.1562-3.543-4.6758-5.625z"/>
  <path d="m419.62 136.37c1.3203 1.1641 2.8125 2.4141 4.4062 3.6328 0.34766-0.62109 0.42578-1.3164-0.023438-2.3203-0.76562-1.6445-2.5586-1.8125-4.3828-1.3125z"/>
  <path d="m608.06 224.67c-13.125-28.816-79.805-32.949-101.64 48.855 0-0.003907 110.55 27.855 101.64-48.855zm-91.453 37.707s3.7344-5.1289 10.641-11.816c-1.5352-0.042969-3.1016-0.33203-4.3867-0.73828-1.0938 1.5234-2.1719 3.125-3.207 4.8047-7.8516 12.672-4.1562-0.66016-4.1562-0.66016s2.5977-6.2031 8.7539-13.668c2.3242-3.4062 4.6797-6.4023 4.625-5.2188l-0.023438 0.15234c10.613-10.629 28.246-21.598 55.406-20.473 15.25 0.64453 5.9531 3.207-0.023437 3.0234-7.2188-0.23047-33.699 0.40234-55.305 24.445 1.1094 1.4609 3.2031 1.9648 4.1328 3.0352 6.1211-5.2656 13.809-10.871 22.938-15.52 0.55859-3.6641 1.7344-7.668 2.4062-6.6094l1.1875 1.7461c0.25391 1.125 0.71875 1.9219 1.3203 2.5078 9.2305-4.0938 19.719-7.0859 31.27-7.7578 17.367-1.0312 1.5469 2.1406 1.5469 2.1406s-10.27 2.0938-24.242 8.0859c0.68359 0.34766 1.1602 0.84375 1.2227 1.7422 0.24219 3.5938-9.375 4.625-13.266 4.0312-11.855 6.3047-24.848 15.199-36.055 27.5-9.0742 9.9375-4.7852-0.75391-4.7852-0.75391zm4.4297 3.9727c0.64844-2.6836 11.211-9.3516 24.484-16.805 2.6094-4.3789 7.0273-10.414 6.9141-8.8125l-0.14453 2.2578c-0.42578 1.2656-0.54297 2.2578-0.46875 3.0625 22.539-12.297 49.234-25.312 49.234-25.312-3.4375 2.9805-26.117 16.992-46.469 28.773 1.6523 0.93359 3.2461 1.6367 2.1445 3.9922-1.7539 3.793-8.5742 2.9023-11.637 1.418-13.738 7.7188-24.488 13.199-24.059 11.426zm3.8594 1.6328c46.934-9.1406 75.629-36.809 75.629-36.809s10.645-10.336 1.4219 1.9492c-24.703 32.883-78.562 38.645-78.562 38.645 0 0.003906-12.746-1.0039 1.5117-3.7852zm33.672 4.8906c0-0.015625 0-0.035156 0.023438-0.0625-15.043 3.8633-27.281 3.0312-27.281 3.0312s-15.125-2.4531 1.293-3.2969c11.219-0.57031 20.68-2.4062 28.707-4.9453 2.625-4.1602 6.2109-8.9531 6.125-7.5l-0.14453 2.2617c-0.47656 1.3828-0.58203 2.4453-0.46094 3.3047 21.539-8.3594 30.613-21.676 33.207-26.02 2.6641-4.4414 9.5859-10.227 3.0586 1.1602-8.4727 14.688-20.949 23.262-33.164 28.258 1.5195 0.84375 2.793 1.6016 1.7852 3.793-2.2773 4.9531-13.215 1.9492-13.148 0.015625z"/>
  <path d="m527.25 250.56c-1.5352-0.042969-3.1016-0.33203-4.3867-0.73828 1.9805-2.7734 4.0156-5.293 6.0703-7.5977 1.1094 1.4609 3.2031 1.9648 4.1328 3.0352-2.1211 1.8086-4.0742 3.6094-5.8164 5.3008z"/>
  <path d="m557.45 235.63c-0.78906-0.11719-1.3789-0.29297-1.5586-0.54687-0.42188-0.58984-0.28125-2.8906 0.11719-5.3477 0.55859-3.6641 1.7344-7.668 2.4062-6.6094l1.1875 1.7461c0.25391 1.125 0.71875 1.9219 1.3203 2.5078 2.2852 2.2188 6.4844 1.4766 8.5742 2.4688 0.68359 0.34766 1.1602 0.84375 1.2227 1.7422 0.23828 3.6016-9.375 4.6328-13.27 4.0391z"/>
  <path d="m558.57 272.87c0-0.015625 0-0.035156 0.023438-0.0625 0.078125-0.74609 1.2383-2.8828 2.7148-5.2148 2.625-4.1602 6.2109-8.9531 6.125-7.5l-0.14453 2.2617c-0.47656 1.3828-0.58203 2.4453-0.46094 3.3047 0.32031 1.8555 1.7734 2.6719 3.1016 3.4062 1.5195 0.84375 2.793 1.6016 1.7852 3.793-2.2734 4.9492-13.211 1.9453-13.145 0.011719z"/>
  <path d="m545.09 254.92c-0.95312-0.44922-1.5195-0.97266-1.5195-1.4062 0.023437-0.56641 0.82422-2.1328 1.9492-3.9688 2.6094-4.3789 7.0273-10.414 6.9141-8.8125l-0.14453 2.2578c-0.42578 1.2656-0.54297 2.2578-0.46875 3.0625 0.21094 1.8477 1.4961 2.7227 2.7656 3.4609 1.6523 0.93359 3.2461 1.6367 2.1445 3.9922-1.7578 3.7891-8.5781 2.8984-11.641 1.4141z"/>
  <path d="m522.86 249.82c-1.6641-0.55859-2.8789-1.3086-2.8398-1.9492 0.027344-0.92969 2.1016-4.4336 4.2266-7.582 1.3711-1.6562 2.9023-3.3672 4.6016-5.0664l-0.125 2.1328c-0.84375 2.4141-0.55469 3.8633 0.20312 4.8594-2.0508 2.3164-4.082 4.8359-6.0664 7.6055z"/>
  <path d="m527.25 250.56c1.7422-1.6875 3.6914-3.4883 5.8203-5.3047 0.51562 0.59375 0.66016 1.3672 0.10547 2.6055-0.96484 2.0469-3.4062 2.7383-5.9258 2.6992z"/>
  <path d="m476.58 194.29c-28.094 7.3789-46.711 56.012 19.734 78.422 0.007813 0 49.184-78.992-19.734-78.422zm12.316 70.078s-3.625-3.1484-7.9297-8.7422c-0.36328 1.125-0.97266 2.25-1.625 3.1602 1.1016 0.92578 2.2578 1.8359 3.4648 2.7266 9.2891 6.7656-1.5078 3-1.5078 3s-4.8203-2.3867-9.9727-7.4805c-2.4414-1.9727-4.5117-3.9492-3.4844-3.8008l0.11719 0.023438c-6.8945-8.625-12.48-22.43-5.3828-42.262 3.9883-11.148 4.1328-4.1367 2.6133 0.24219-1.8086 5.293-7.2305 24.77 8.8828 42.504 1.5234-0.69531 2.4414-2.1914 3.5859-2.7891-3.207-4.9102-6.3711-11-8.3789-18.055-3.0586-0.70703-6.2891-1.8633-5.2266-2.2891l1.8047-0.72266c1.0312-0.10547 1.832-0.375 2.4766-0.78516-1.5078-7.1016-1.7461-15.035 0.26953-23.559 3.0117-12.836 2.2188-0.96484 2.2188-0.96484s-0.48828 7.6875 1.5977 18.418c0.44141-0.46484 0.99609-0.77734 1.7969-0.75 3.1797 0.10156 1.9141 7.2344 0.51953 10.047 2.8633 9.1992 7.6836 19.434 15.863 28.621 6.6406 7.4336-1.7031 3.457-1.7031 3.457zm4.457-2.9492c-2.1992-0.68359-5.6562-8.9609-9.1523-19.27-3.2383-2.2773-7.5156-5.9883-6.1328-5.7695l1.9492 0.26953c1.0039 0.41406 1.8203 0.58203 2.5547 0.58984-5.6602-17.504-11.004-38.121-11.004-38.121 1.8359 2.75 8.9492 20.508 14.633 36.355 1.1992-1.1367 2.1719-2.2461 3.9805-1.2656 2.9102 1.5898 0.59766 6.5312-1.3828 8.6562 3.6445 10.688 6.0078 18.996 4.5547 18.555zm2.2891-2.6992c2.6055-35.18-15.086-58.406-15.086-58.406s-6.6289-8.6055 2.0273-0.87891c23.129 20.703 16.023 60.688 16.023 60.688-0.003906-0.003907-3.7422 9.2773-2.9648-1.4023zm11.855-24.344c-0.023438 0.003906-0.035156-0.003906-0.0625-0.011719-0.015625 11.336-3.5 20.266-3.5 20.266s-5.543 10.91-2.5859-1.2031c2.0312-8.2891 2.5547-15.395 2.1562-21.465-3.0391-2.25-6.418-5.2539-5.1914-5.0859l1.9609 0.28516c1.1133 0.46484 2 0.61719 2.7812 0.58984-2.4453-16.469-12.012-24.168-15.211-26.402-3.2891-2.2969-6.7656-7.8398 1.6797-2.1523 10.914 7.3594 15.59 17.199 17.203 26.543 1.0742-1.0586 2.0273-1.9375 3.6953-1.0195 3.8164 2.0625-1.2617 9.8516-2.9258 9.6562z"/>
  <path d="m480.97 255.62c-0.36328 1.125-0.97266 2.25-1.625 3.1602-1.9609-1.6641-3.7109-3.3477-5.2578-5.0508 1.5234-0.69531 2.4414-2.1914 3.5859-2.7891 1.0898 1.6992 2.2266 3.2734 3.2969 4.6797z"/>
  <path d="m474.75 232.29c-0.27344 0.57813-0.55859 0.99219-0.82422 1.0938-0.59375 0.26953-2.5938-0.003906-4.6367-0.49219-3.0586-0.70703-6.2891-1.8633-5.2266-2.2891l1.8047-0.72266c1.0312-0.10547 1.832-0.375 2.4766-0.78516 2.4414-1.4961 2.75-4.6484 4.082-6.1055 0.44141-0.46484 0.99609-0.77734 1.7969-0.75 3.1914 0.10547 1.9219 7.2422 0.52734 10.051z"/>
  <path d="m507.5 234.37c-0.023438 0.003906-0.035156-0.003906-0.0625-0.011719-0.63281-0.125-2.2344-1.1484-3.9297-2.4062-3.0391-2.25-6.418-5.2539-5.1914-5.0859l1.9609 0.28516c1.1133 0.46484 2 0.61719 2.7812 0.58984 1.6953-0.089844 2.7227-1.1094 3.6719-2.0117 1.0742-1.0586 2.0273-1.9375 3.6953-1.0195 3.8164 2.0664-1.2617 9.8555-2.9258 9.6602z"/>
  <path d="m488.8 242.86c-0.61719 0.66797-1.1992 1.043-1.5664 1.0039-0.48828-0.054687-1.668-0.77734-3.0312-1.7188-3.2383-2.2773-7.5156-5.9883-6.1328-5.7695l1.9492 0.26953c1.0039 0.41406 1.8203 0.58203 2.5547 0.58984 1.6758-0.003906 2.7227-0.87891 3.6289-1.7656 1.1992-1.1367 2.1719-2.2461 3.9805-1.2656 2.9141 1.5898 0.60547 6.5312-1.3828 8.6562z"/>
  <path d="m479.34 258.78c-0.85156 1.1875-1.7812 2.0117-2.3359 1.9375-0.80469-0.089844-3.3945-1.8828-5.6797-3.6914-1.1094-1.1367-2.2734-2.3984-3.3672-3.7812l1.8203 0.25781c1.9258 0.80469 3.2656 0.69922 4.2969 0.22266 1.5508 1.707 3.3047 3.3984 5.2656 5.0547z"/>
  <path d="m480.97 255.62c-1.0625-1.4062-2.207-2.9844-3.3047-4.6797 0.63672-0.33203 1.3438-0.375 2.2969 0.12891 1.5703 0.84766 1.6172 2.6992 1.0078 4.5508z"/>
  <path d="m517.84 353.81c-28.348 6.1836-65.211-28.195-14.609-77.945-0.007813 0 76.922 47.305 14.609 77.945zm-17.859-67.238s-1.9648 4.4062-3.5234 11.273c-0.80469-0.83594-1.8125-1.5469-2.7734-2.0391 0.60547-1.3047 1.2695-2.6445 2-3.9883 5.5664-10.148-2.5977-1.9609-2.5977-1.9609s-3.3672 4.2969-5.8906 11.098c-1.3906 2.8398-2.4414 5.5039-1.5742 4.9297l0.089844-0.078125c-2.6484 10.695-1.9727 25.379 12.621 39.641 8.1914 7.9844 5.4336 1.7461 2.2461-1.4102-3.832-3.8477-16.738-18.547-9.5586-41.418 1.6797-0.074219 3.0977 0.81641 4.3789 0.83594-0.85547 5.7695-1.1992 12.543-0.078125 19.656-2.4688 2.0234-4.9062 4.4961-3.7695 4.3906l1.9258-0.17188c0.96875-0.37109 1.8086-0.5 2.5586-0.4375 1.5781 6.9102 4.6367 14.023 9.9688 20.613 8.0117 9.9219 2.4023-0.15234 2.4023-0.15234s-3.6172-6.5469-6.1836-16.918c0.59766 0.21094 1.2383 0.21875 1.9414-0.16406 2.8242-1.5234-1.2695-7.2461-3.6797-9.0898-1.25-9.3633-1.1133-20.551 2.4648-32.352 2.918-9.543-2.9688-2.2578-2.9688-2.2578zm5.2305 0.57812c-1.6875 1.5977-1.3672 10.434-0.26953 21.102-1.9805 3.4492-4.3047 8.6445-3.1484 7.8438l1.6367-1.1211c0.75-0.81641 1.4219-1.3438 2.0625-1.668 2.1445 17.969 5.8477 38.504 5.8477 38.504 0.50781-3.2461-0.41406-22.07-1.832-38.613 1.5352 0.46484 2.8828 1.0195 4.0977-0.67188 1.9648-2.7109-2.1523-6.0273-4.8164-6.9961-1.1484-11.043-2.4453-19.445-3.5781-18.379zm3.1875 1.3477c16.867 29.781 10.539 58.207 10.539 58.207s-2.4141 10.586 2.1953-0.11719c12.27-28.672-10.625-60.66-10.625-60.66s-7.2305-6.4844-2.1094 2.5703zm20.727 16.066c-0.003906 0.011719-0.023437 0.015625-0.042968 0.039063-4.6992-9.9844-11.531-16.25-11.531-16.25s-9.4961-7.1133-1.8203 2.2227c5.2422 6.3789 8.6445 12.383 10.801 17.914-1.8086 3.3711-3.6055 7.5312-2.5703 6.8281l1.6367-1.1367c0.81641-0.90625 1.5664-1.4609 2.2695-1.7734 4.6016 15.602-0.81641 26.691-2.7891 30.121-2.0039 3.4883-2.8555 9.9531 2.4062 1.125 6.7891-11.418 6.9453-22.176 4.5312-31.137 1.4062 0.42578 2.6211 0.78516 3.7539-0.78906 2.5664-3.5234-5.2227-8.0977-6.6445-7.1641z"/>
  <path d="m496.46 297.85c-0.80469-0.83594-1.8125-1.5469-2.7734-2.0391-1.0938 2.3398-1.9648 4.625-2.6641 6.8203 1.6797-0.074218 3.0977 0.81641 4.3789 0.83594 0.30469-2 0.66797-3.8984 1.0586-5.6172z"/>
  <path d="m500.5 321.18c-0.48828-0.375-0.91406-0.59766-1.2109-0.58203-0.65625 0.039063-2.3203 1.1875-3.9609 2.5195-2.4688 2.0234-4.9062 4.4961-3.7695 4.3906l1.9258-0.17188c0.96875-0.37109 1.8086-0.5 2.5586-0.4375 2.8125 0.21094 4.3945 2.8555 6.1875 3.5391 0.59766 0.21094 1.2383 0.21875 1.9414-0.16406 2.8281-1.5352-1.2578-7.2539-3.6719-9.0938z"/>
  <path d="m529.13 304.57c-0.003906 0.011719-0.023437 0.015625-0.042968 0.039063-0.53906 0.38672-1.5273 2.0117-2.5469 3.8867-1.8086 3.3711-3.6055 7.5312-2.5703 6.8281l1.6367-1.1367c0.81641-0.90625 1.5664-1.4609 2.2695-1.7734 1.5586-0.6875 2.918-0.26172 4.1445 0.11719 1.4062 0.42578 2.6211 0.78516 3.7539-0.78906 2.5664-3.5312-5.2227-8.1055-6.6445-7.1719z"/>
  <path d="m508.79 305.54c-0.82812-0.3125-1.5195-0.375-1.832-0.17969-0.42578 0.28125-1.1992 1.4453-2.0117 2.8945-1.9805 3.4492-4.3047 8.6445-3.1484 7.8438l1.6367-1.1211c0.75-0.81641 1.4219-1.3438 2.0625-1.668 1.5117-0.75 2.8125-0.46094 4.0156-0.10547 1.5352 0.46484 2.8828 1.0195 4.0977-0.67188 1.9609-2.7148-2.1484-6.0312-4.8203-6.9922z"/>
  <path d="m493.69 295.8c-1.2695-0.66016-2.4453-0.96484-2.9062-0.64453-0.67578 0.42969-2.2852 3.1797-3.5859 5.8008-0.55469 1.4961-1.0586 3.1406-1.4883 4.8477l1.5586-1.0586c1.3789-1.5664 2.625-2.0898 3.7539-2.1289 0.70703-2.1914 1.5742-4.4766 2.668-6.8164z"/>
  <path d="m496.46 297.85c-0.39063 1.7266-0.76172 3.6172-1.0547 5.6172 0.71875 0 1.3711-0.28125 2.0117-1.1523 1.0703-1.4805 0.35938-3.1211-0.95703-4.4648z"/>
  <path d="m499.28 385.58c-8.3477 27.793-56.297 43.328-75.254-25.055 0.007812 0.007812 78.699-44.301 75.254 25.055zm-67.469-17.023s2.9023 3.8711 8.1523 8.5625c-1.1211 0.29688-2.2188 0.81641-3.1406 1.4219-0.84375-1.1719-1.6875-2.3789-2.4961-3.6719-6.1758-9.7891-2.9727 1.3203-2.9727 1.3203s2.1172 5.0352 6.8359 10.523c1.8086 2.5977 3.6406 4.8047 3.5508 3.7695l-0.023437-0.11719c8.0859 7.5039 21.242 14.051 40.773 8.2148 10.988-3.2812 4.1836-3.9023-0.125-2.6641-5.2188 1.4883-24.336 5.6523-40.852-11.75 0.74609-1.4727 2.2109-2.2969 2.8633-3.4102 4.625 3.543 10.383 7.1328 17.148 9.6094 0.55859 3.1484 1.5508 6.4727 1.9922 5.4258l0.78906-1.7656c0.14453-1.043 0.44141-1.8086 0.85156-2.4453 6.8281 1.9727 14.52 2.75 22.875 1.2812 12.562-2.1836 1.0352-2.1797 1.0352-2.1797s-7.4883 0-17.809-2.8164c0.48828-0.41406 0.80078-0.96484 0.80469-1.7539 0.039062-3.2148-6.9375-2.4062-9.7227-1.2031-8.8047-3.4609-18.523-8.9883-27.105-17.852-6.9336-7.1562-3.4258 1.5-3.4258 1.5zm3.0586-4.2773c0.57031 2.25 8.4492 6.2539 18.312 10.473 2.0508 3.4062 5.4766 7.9727 5.3359 6.5586l-0.17969-1.9648c-0.37109-1.0547-0.49219-1.9023-0.45313-2.6133 16.738 6.8477 36.496 13.578 36.496 13.578-2.5742-2.0273-19.512-10.371-34.652-17.137 1.1523-1.1328 2.2773-2.0391 1.3984-3.9102-1.418-3.0391-6.3047-1.0547-8.4492 0.80469-10.219-4.3555-18.195-7.3008-17.809-5.7891zm2.7227-2.1367c34.215-0.29297 56.012 19.035 56.012 19.035s8.0938 7.2305 0.95313-1.9883c-19.113-24.629-58.211-20.137-58.211-20.137-0.003906 0-9.1523 3.1758 1.2461 3.0898zm24.09-10.332c0 0.015625 0 0.039062 0.023437 0.054688-11.008-0.73438-19.809 2.1992-19.809 2.1992s-10.82 4.8555 1.0703 2.6758c8.1133-1.5 15.023-1.5625 20.895-0.74609 2.0547 3.1914 4.8398 6.8047 4.7227 5.5391l-0.19531-1.9805c-0.39062-1.1484-0.51562-2.0664-0.44922-2.8398 15.863 3.5508 22.922 13.676 24.969 17.059 2.0781 3.4453 7.3242 7.3203 2.1602-1.5625-6.6914-11.48-16.027-16.816-25.02-19.051 1.0586-1.0312 1.9531-1.9258 1.1328-3.6719-1.8398-3.9727-9.6016 0.63672-9.5 2.3242z"/>
  <path d="m439.96 377.12c-1.1211 0.29688-2.2188 0.81641-3.1406 1.4219 1.5234 2.1016 3.0977 3.9648 4.6875 5.6289 0.74609-1.4727 2.2109-2.2969 2.8633-3.4102-1.6094-1.2266-3.1016-2.4805-4.4102-3.6406z"/>
  <path d="m462.34 384.91c-0.58203 0.24609-0.98438 0.51562-1.0977 0.77734-0.29297 0.58203-0.09375 2.5938 0.28125 4.6797 0.55859 3.1484 1.5508 6.4727 1.9922 5.4258l0.78906-1.7656c0.14453-1.043 0.44141-1.8086 0.85156-2.4453 1.5625-2.3672 4.6328-2.4648 6.1055-3.7109 0.48828-0.41406 0.80078-0.96484 0.80469-1.7539 0.035156-3.2188-6.9414-2.4062-9.7266-1.207z"/>
  <path d="m461.68 351.81c0 0.015625 0 0.039062 0.023437 0.054688 0.085937 0.65625 1.0078 2.3203 2.1602 4.1289 2.0547 3.1914 4.8398 6.8047 4.7227 5.5391l-0.19531-1.9805c-0.39062-1.1484-0.51562-2.0664-0.44922-2.8398 0.14453-1.6953 1.1758-2.6719 2.1094-3.5625 1.0586-1.0312 1.9531-1.9258 1.1328-3.6719-1.8438-3.9648-9.6055 0.64453-9.5039 2.332z"/>
  <path d="m452.68 370.07c-0.67578 0.57813-1.0703 1.1328-1.0547 1.5234 0.050781 0.50781 0.67578 1.7422 1.5508 3.1523 2.0508 3.4062 5.4766 7.9727 5.3359 6.5586l-0.17969-1.9648c-0.37109-1.0547-0.49219-1.9023-0.45312-2.6133 0.054688-1.6875 0.96875-2.6875 1.8438-3.5547 1.1523-1.1328 2.2773-2.0391 1.3984-3.9102-1.4062-3.0391-6.2969-1.043-8.4414 0.80859z"/>
  <path d="m436.83 378.55c-1.1914 0.80078-2.0273 1.668-1.9727 2.2305 0.050781 0.8125 1.6758 3.543 3.332 5.9414 1.0625 1.2109 2.2227 2.4531 3.5273 3.6523l-0.17188-1.8438c-0.69922-1.9883-0.54297-3.332-0.027344-4.3516-1.5898-1.6641-3.1641-3.5273-4.6875-5.6289z"/>
  <path d="m439.96 377.12c1.3047 1.1602 2.8008 2.418 4.4062 3.6328 0.33203-0.61719 0.42188-1.3281-0.023438-2.3125-0.77734-1.6562-2.5703-1.8281-4.3828-1.3203z"/>
  <path d="m426.87 168.89c-41.82-35.504-117.62-30.934-62.586 78.695 0 0 145.9 19.719 62.586-78.695zm-62.309 62.691s-0.90234-7.2227 0.125-16.961c-1.7031 0.18359-3.6562 0.050781-5.4414-0.32031 0.29297 2.168 0.67578 4.418 1.1641 6.7578 3.6836 17.633-5.125-0.25391-5.125-0.25391s-3.1602-8.457-3.7031-19.078c-0.78516-4.793-1.0977-9.0156-0.023437-7.4648l0.11328 0.17188c1.2109-15.406 9.6758-32.305 40.035-34.871 17.047-1.4453 9.5039 3.2773 2.8711 3.9258-7.9961 0.80469-35.918 5.5625-36.102 40.039 2.6055 1.7344 5.332 2.0781 7.3711 3.3281 1.5586-7.7461 4.4648-16.191 9.8281-23.594-2.9102-4.8477-5.5039-10.219-3.7539-8.9492l2.9336 2.0938c1.3555 1.4219 2.6211 2.3867 3.8398 3.0742 6.0078-6.707 14.422-12.168 26.23-14.773 17.719-3.9219 3.7305 2.5664 3.7305 2.5664s-9.0391 4.2578-18.328 14.145c1.0547 0.32422 2.043 0.92969 2.9609 2.0781 3.7188 4.625-5.6562 7.3984-10.41 7.2188-6.707 9.9727-12.168 23.477-12.449 41.137-0.22266 14.273-5.8672-0.26953-5.8672-0.26953zm8.6016 4.4961c-1.9102-3.5898 3.0742-13.848 10.219-25.504-1.3906-6.0938-2.4375-14.605-1.0195-12.504l2.0273 2.9727c0.74609 1.7148 1.5625 2.9961 2.4258 4.043 12.48-19.363 28.734-40.258 28.734-40.258-0.81641 4.3867-11.816 25.996-22.445 44.324 2.6953 0.99219 5.0859 1.6523 6.1836 4.8828 1.7461 5.2031-6.4688 5.0664-11.199 3.5859-7.375 12.102-13.68 20.824-14.926 18.457zm5.7148 1.5469c41.793-18.891 46.121-59.168 46.121-59.168s1.5625-15.004 3.4219 2.3516c4.9688 46.418-47.527 61.953-47.527 61.953 0-0.003906-14.699 0.60156-2.0156-5.1367zm40.996 1.332c-0.027344-0.027344-0.039063-0.054687-0.0625-0.085937-12.48 7.2617-26.48 8.0039-26.48 8.0039s-18.66-0.91797-1.7695-4.4688c11.535-2.4258 19.988-6.2344 26.176-10.707-1.1484-5.8125-1.9141-12.594-0.61719-10.695l2.043 2.9844c0.80078 1.875 1.7188 3.2656 2.6719 4.3516 15.172-14.078 12.188-32.727 10.809-38.77-1.4219-6.1719 0.50391-14.746 4.3789 1.0547 5.0117 20.363-0.21875 33.375-8.5625 41.703 2.4453 0.85547 4.5703 1.668 5.5703 4.6523 2.2812 6.7695-12.387 4.4883-14.156 1.9766z"/>
  <path d="m364.68 214.61c-1.7031 0.18359-3.6562 0.050781-5.4414-0.32031-0.54688-3.8789-0.77734-7.4688-0.76563-10.773 2.6055 1.7344 5.332 2.0781 7.3711 3.3281-0.54297 2.6914-0.92188 5.3164-1.1641 7.7656z"/>
  <path d="m382.88 190.7c-0.98047-0.035156-1.7695-0.19531-2.2109-0.49219-1.0078-0.69922-3.0703-3.707-4.9961-6.9609-2.9102-4.8477-5.5039-10.219-3.7539-8.9492l2.9336 2.0938c1.3555 1.4219 2.6211 2.3867 3.8398 3.0742 4.582 2.5352 8.418 0.93359 11.625 1.9375 1.0547 0.32422 2.043 0.92969 2.9609 2.0781 3.7344 4.625-5.6406 7.3984-10.398 7.2188z"/>
  <path d="m419.87 238.95c-0.027344-0.027344-0.039063-0.054687-0.0625-0.085937-0.63281-0.99219-1.4219-3.9297-2.0781-7.1719-1.1484-5.8125-1.9141-12.594-0.61719-10.695l2.043 2.9844c0.80078 1.875 1.7188 3.2656 2.6719 4.3516 2.1289 2.3672 4.4961 3.2031 6.625 3.9883 2.4453 0.85547 4.5703 1.668 5.5703 4.6523 2.2852 6.7695-12.383 4.4883-14.152 1.9766z"/>
  <path d="m388.09 217.62c-1.4375-0.4375-2.5547-1.0234-2.9844-1.6016-0.50781-0.73438-1.1367-2.8828-1.7188-5.4414-1.3906-6.0938-2.4375-14.605-1.0195-12.504l2.0273 2.9727c0.74609 1.7148 1.5625 2.9961 2.4258 4.043 1.9922 2.375 4.2266 3.3086 6.2891 4.0664 2.6953 0.99219 5.0859 1.6523 6.1836 4.8828 1.7383 5.1992-6.4727 5.0664-11.203 3.582z"/>
  <path d="m359.24 214.29c-2.3398-0.46484-4.3516-1.2539-4.9336-2.0898-0.86719-1.2031-1.9922-6.082-2.7227-10.488-0.11328-2.3594-0.11328-4.8086 0.089844-7.293l1.9023 2.8125c1.4062 3.2539 3.125 5.0977 4.8945 6.2812 0 3.3086 0.22656 6.8984 0.76953 10.777z"/>
  <path d="m364.68 214.61c0.24219-2.4531 0.62109-5.0781 1.1641-7.7656 1.1328 0.71094 2.0312 1.6875 2.6133 3.375 0.94141 2.8203-1.0273 4.0664-3.7773 4.3906z"/>
  <path d="m327.53 393.37c49.469 23.684 109.02 24.922 16.402-44.289 0.003906-0.003906-127.08-19.637-16.402 44.289zm23.172-34.625s3.8984 4.418 7.3242 10.266c1.2812-0.023437 2.957 0.14453 4.5469 0.47656-1.1758-1.3281-2.4805-2.7031-3.8984-4.1484-10.711-10.852 4.2734 0.42578 4.2734 0.42578s6.2734 5.2812 11.352 11.738c2.7266 2.9336 4.832 5.5039 3.2812 4.5234l-0.16797-0.11719c5.7461 9.2461 6.2734 19.02-17.258 18.984-13.199-0.042969-9.1523-2.5039-4.043-2.543 6.1367-0.050781 26.73-1.457 11.789-22.293-2.8711-1.1992-5.2266-1.5508-7.4297-2.4141 2.1211 4.5977 3.4648 9.5664 2.3516 13.754 4.4805 3.0781 8.9258 6.4609 6.9375 5.6211l-3.3047-1.4453c-1.7031-0.90625-3.1602-1.5664-4.457-2.0508-1.9414 3.7344-6.3906 6.6016-14.828 7.543-12.68 1.4375-4.1484-1.7422-4.1484-1.7422s5.4805-2.0898 8.7148-7.582c-1.0078-0.25391-2.082-0.66797-3.3203-1.4062-5.0586-3.0078 1.3555-4.1836 5.2812-3.832 1.1016-5.6719-0.375-13.547-7.8633-24.219-6.0781-8.6289 4.8672 0.46094 4.8672 0.46094zm-8.9297-3.1758c3.1016 2.2734 3.543 8.2148 2.832 14.895 3.793 3.7461 8.3711 8.9609 6.3008 7.6094l-2.957-1.9258c-1.3477-1.0586-2.5703-1.8867-3.7344-2.5547-1.6562 11.043-5.7305 22.812-5.7305 22.812-1.2383-2.6055-1.7539-15.082-1.1523-25.621-2.625-0.73828-4.8555-1.2695-7.1289-3.2812-3.7188-3.2305 3.0117-2.7148 7.5195-1.5664 0.67969-6.918 2-11.863 4.0508-10.367zm-5.3398-1.2422c-25.676 9.2227-11.57 33.348-11.57 33.348s5.293 8.9922-3.8086-1.6055c-24.328-28.336 11.508-34.949 11.508-34.949 0.003906-0.003907 11.672 0.40625 3.8711 3.207zm-33.852-2.957c0.027344 0.011718 0.054687 0.027343 0.078125 0.0625 6.9609-3.7578 18.008-3.457 18.008-3.457s15.562 1.5469 3.3945 2.8008c-8.3008 0.85547-13.492 2.7109-16.57 5.0898 3.4844 3.5781 7.0508 7.7109 5.168 6.5078l-2.957-1.9141c-1.4688-1.1875-2.8281-2.0703-4.0703-2.7812-6.1719 7.7227 4.4141 19.156 8.1797 22.883 3.8477 3.8125 6.0312 8.8828-4.0312-0.86328-12.965-12.594-14.422-20.164-11.277-24.762-2.3516-0.65625-4.4336-1.2539-6.5508-3.125-4.8242-4.2266 8.0938-2.0664 10.629-0.44141z"/>
  <path d="m358.02 369.01c1.2812-0.023437 2.957 0.14453 4.5469 0.47656 2.1523 2.3789 3.9023 4.5586 5.3242 6.5625-2.8711-1.1992-5.2266-1.5508-7.4297-2.4141-0.73828-1.5977-1.5664-3.1602-2.4414-4.625z"/>
  <path d="m353.69 382.5c0.82422 0.074218 1.5273 0.21094 2.0156 0.41016 1.1367 0.48828 4.1211 2.418 7.1133 4.4805 4.4805 3.0781 8.9258 6.4609 6.9375 5.6211l-3.3047-1.4453c-1.7031-0.90625-3.1602-1.5664-4.457-2.0508-4.832-1.7695-7.2422-1.0117-10.266-1.7812-1.0078-0.25391-2.082-0.66797-3.3203-1.4062-5.0586-3.0117 1.3555-4.1875 5.2812-3.8281z"/>
  <path d="m302.58 351.37c0.027344 0.011718 0.054687 0.027343 0.078125 0.0625 0.95312 0.60937 2.8711 2.4453 4.832 4.4336 3.4844 3.5781 7.0508 7.7109 5.168 6.5078l-2.957-1.9141c-1.4688-1.1875-2.8281-2.0703-4.0703-2.7812-2.7734-1.5469-5.0469-2.1602-7.125-2.7422-2.3516-0.65625-4.4336-1.2539-6.5508-3.125-4.8281-4.2266 8.0898-2.0664 10.625-0.44141z"/>
  <path d="m337.72 365.94c1.3477 0.33984 2.5078 0.76562 3.0977 1.1211 0.76172 0.48828 2.1992 1.8086 3.7852 3.3984 3.793 3.7461 8.3711 8.9609 6.3008 7.6094l-2.957-1.9258c-1.3477-1.0586-2.5703-1.8867-3.7344-2.5547-2.6602-1.5391-4.8828-2.2383-6.8828-2.8047-2.625-0.73828-4.8555-1.2695-7.1289-3.2812-3.7188-3.2227 3.0117-2.707 7.5195-1.5625z"/>
  <path d="m362.57 369.48c2.1094 0.39844 4.0898 0.99609 4.9297 1.5195 1.2305 0.77344 4.2891 3.793 6.7969 6.4922 1.125 1.4297 2.1836 2.918 3.1133 4.4062l-2.7891-1.8086c-2.5469-2.0312-4.7539-3.2461-6.7188-4.0469-1.4258-2.0039-3.1797-4.1875-5.332-6.5625z"/>
  <path d="m358.02 369.01c0.875 1.4727 1.707 3.0312 2.4453 4.625-1.2266-0.48828-2.3906-1.1211-3.6055-2.1836-1.9961-1.7539-0.93359-2.3906 1.1602-2.4414z"/>
  <use x="70" y="644" xlink:href="#v"/>
  <use x="90.550781" y="644" xlink:href="#a"/>
  <use x="104.359375" y="644" xlink:href="#c"/>
  <use x="123.347656" y="644" xlink:href="#f"/>
  <use x="142.242188" y="644" xlink:href="#d"/>
  <use x="155.628906" y="644" xlink:href="#c"/>
  <use x="174.617188" y="644" xlink:href="#k"/>
  <use x="204.410156" y="644" xlink:href="#j"/>
  <use x="224.453125" y="644" xlink:href="#i"/>
  <use x="252.453125" y="644" xlink:href="#h"/>
  <use x="274.121094" y="644" xlink:href="#f"/>
  <use x="293.015625" y="644" xlink:href="#a"/>
  <use x="306.824219" y="644" xlink:href="#b"/>
  <use x="326.0625" y="644" xlink:href="#e"/>
  <use x="355.742188" y="644" xlink:href="#g"/>
  <use x="376.265625" y="644" xlink:href="#u"/>
  <use x="396.648438" y="644" xlink:href="#t"/>
  <use x="417.992188" y="644" xlink:href="#a"/>
  <use x="431.796875" y="644" xlink:href="#b"/>
  <use x="451.035156" y="644" xlink:href="#s"/>
  <use x="476.902344" y="644" xlink:href="#e"/>
  <use x="70" y="672" xlink:href="#r"/>
  <use x="82.183594" y="672" xlink:href="#a"/>
  <use x="95.992188" y="672" xlink:href="#b"/>
  <use x="115.226562" y="672" xlink:href="#q"/>
  <use x="154.152344" y="672" xlink:href="#d"/>
  <use x="167.535156" y="672" xlink:href="#p"/>
  <use x="187.46875" y="672" xlink:href="#c"/>
  <use x="216.207031" y="672" xlink:href="#o"/>
  <use x="239.640625" y="672" xlink:href="#b"/>
  <use x="258.878906" y="672" xlink:href="#n"/>
  <use x="278.8125" y="672" xlink:href="#e"/>
  <use x="308.492188" y="672" xlink:href="#g"/>
  <use x="329.015625" y="672" xlink:href="#a"/>
  <use x="342.820312" y="672" xlink:href="#b"/>
  <use x="362.058594" y="672" xlink:href="#m"/>
  <use x="371.65625" y="672" xlink:href="#c"/>
  <use x="390.648438" y="672" xlink:href="#l"/>
  <use x="407.242188" y="672" xlink:href="#d"/>
 </g>
</svg>
